<?xml version="1.0" standalone="no"?>
<!DOCTYPE svg PUBLIC "-//W3C//DTD SVG 20010904//EN"
 "http://www.w3.org/TR/2001/REC-SVG-20010904/DTD/svg10.dtd">
<svg version="1.0" xmlns="http://www.w3.org/2000/svg"
 width="700.000000pt" height="700.000000pt" viewBox="0 0 700.000000 700.000000"
 preserveAspectRatio="xMidYMid meet">
<metadata>
Created by potrace 1.14, written by Peter Selinger 2001-2017
</metadata>
<g transform="translate(0.000000,700.000000) scale(0.100000,-0.100000)"
fill="#000000" stroke="none">
<path d="M3396 6698 c-27 -27 -406 -629 -422 -673 -4 -9 10 -9 58 1 258 54
568 57 856 8 52 -9 95 -14 98 -12 8 9 -389 644 -422 676 -29 27 -41 32 -84 32
-43 0 -55 -5 -84 -32z"/>
<path d="M1151 6143 c-41 -21 -71 -67 -71 -111 0 -27 389 -1074 405 -1090 1
-2 29 36 60 85 161 247 413 498 663 662 45 30 82 57 82 60 0 9 -1036 402
-1073 407 -19 3 -46 -2 -66 -13z"/>
<path d="M5530 6082 c-113 -43 -352 -134 -532 -203 -180 -68 -328 -127 -328
-130 0 -3 37 -30 83 -60 250 -164 508 -424 672 -678 34 -52 50 -70 55 -60 5 8
96 245 204 528 123 323 196 527 196 550 0 67 -63 132 -127 131 -10 0 -110 -35
-223 -78z"/>
<path d="M3295 5844 c-16 -2 -66 -9 -110 -15 -351 -46 -722 -205 -1010 -434
-98 -78 -254 -234 -335 -335 -323 -405 -490 -943 -451 -1451 41 -521 253 -980
618 -1341 320 -316 689 -505 1148 -585 141 -24 509 -24 650 0 473 83 853 281
1175 613 318 328 507 711 575 1169 22 147 22 433 0 580 -68 458 -257 841 -575
1169 -321 330 -707 532 -1170 611 -91 16 -446 29 -515 19z m527 -353 c718
-145 1264 -701 1400 -1428 31 -169 31 -447 0 -616 -136 -727 -682 -1283 -1400
-1428 -150 -30 -435 -37 -588 -15 -783 115 -1378 704 -1505 1491 -17 103 -17
417 0 520 59 366 217 690 465 952 278 293 618 473 1021 538 137 22 467 14 607
-14z"/>
<path d="M2265 4123 c-97 -39 -190 -128 -233 -221 -23 -50 -26 -70 -26 -162
-1 -133 22 -195 99 -279 164 -177 426 -186 596 -20 90 88 139 233 119 356 -5
31 -11 57 -12 58 -11 8 -481 277 -491 280 -7 2 -30 -3 -52 -12z"/>
<path d="M4408 3992 c-232 -134 -238 -138 -249 -177 -14 -49 -6 -153 16 -215
77 -220 339 -331 548 -232 92 43 150 100 194 190 36 73 38 80 38 176 0 93 -3
107 -32 168 -42 90 -100 150 -186 193 -38 19 -75 35 -81 34 -6 0 -118 -62
-248 -137z"/>
<path d="M2784 3150 c-11 -4 -33 -22 -47 -40 -35 -41 -38 -114 -7 -153 41 -51
241 -161 378 -207 222 -74 472 -79 701 -14 148 43 380 166 424 226 42 56 15
152 -51 184 -52 25 -97 13 -213 -54 -180 -105 -352 -150 -534 -138 -171 10
-285 46 -461 148 -102 58 -141 68 -190 48z"/>
<path d="M880 4061 c-352 -217 -380 -240 -380 -306 0 -66 28 -89 380 -306 184
-114 336 -206 337 -205 1 1 -7 51 -17 110 -44 245 -44 557 0 802 10 60 18 109
17 110 -1 1 -153 -91 -337 -205z"/>
<path d="M5744 4244 c3 -16 15 -87 26 -159 37 -234 25 -585 -26 -819 -4 -16
-3 -27 2 -24 253 152 657 407 679 429 26 25 30 37 30 84 0 47 -4 59 -30 84
-22 22 -426 277 -679 429 -5 3 -6 -8 -2 -24z"/>
<path d="M1282 2041 c-116 -305 -202 -544 -202 -563 0 -62 65 -127 127 -128
22 0 1083 402 1083 411 0 3 -37 30 -82 60 -249 163 -484 397 -655 652 -36 53
-66 97 -67 97 -2 0 -94 -238 -204 -529z"/>
<path d="M5425 2499 c-164 -254 -427 -518 -674 -679 -44 -30 -81 -56 -81 -59
0 -7 1000 -389 1057 -404 76 -20 153 42 153 124 0 23 -74 229 -200 559 -109
287 -201 525 -204 527 -2 2 -25 -28 -51 -68z"/>
<path d="M2974 1485 c16 -44 395 -646 422 -672 29 -28 41 -33 84 -33 43 0 55
5 84 33 33 31 430 666 422 675 -3 2 -46 -3 -98 -12 -287 -49 -605 -46 -856 7
-48 11 -62 11 -58 2z"/>
</g>
</svg>
