<?xml version="1.0" standalone="no"?>
<!DOCTYPE svg PUBLIC "-//W3C//DTD SVG 20010904//EN"
 "http://www.w3.org/TR/2001/REC-SVG-20010904/DTD/svg10.dtd">
<svg version="1.0" xmlns="http://www.w3.org/2000/svg"
 width="398.000000pt" height="398.000000pt" viewBox="0 0 398.000000 398.000000"
 preserveAspectRatio="xMidYMid meet">
<metadata>
Created by potrace 1.14, written by Peter Selinger 2001-2017
</metadata>
<g transform="translate(0.000000,398.000000) scale(0.100000,-0.100000)"
fill="#000000" stroke="none">
<path d="M1905 3947 c-27 -13 -60 -35 -72 -48 -22 -24 -327 -515 -346 -556 -6
-13 -16 -23 -24 -23 -7 0 -185 66 -395 146 -211 80 -404 148 -430 151 -133 16
-260 -98 -260 -235 -1 -50 18 -106 145 -437 80 -209 148 -387 152 -396 3 -10
0 -22 -7 -28 -7 -6 -134 -86 -283 -176 -148 -91 -284 -181 -302 -199 -30 -33
-63 -116 -63 -161 0 -44 31 -123 62 -158 20 -22 144 -104 303 -201 149 -91
275 -170 282 -176 9 -8 7 -24 -12 -72 -13 -35 -80 -211 -150 -393 -138 -360
-146 -395 -110 -483 38 -93 160 -164 253 -147 20 4 207 72 416 151 208 79 386
144 395 144 10 -1 79 -104 191 -287 186 -304 208 -331 294 -354 82 -22 176 3
236 64 26 27 304 468 346 550 8 15 21 27 30 27 8 0 187 -65 397 -146 210 -80
401 -148 423 -151 64 -8 139 21 194 76 53 53 75 115 68 188 -3 28 -68 212
-152 431 -80 210 -146 386 -146 391 0 5 125 86 278 180 318 196 301 184 336
235 23 35 26 48 26 130 0 147 0 148 -336 354 -154 94 -286 175 -294 180 -12 7
11 76 134 398 86 224 151 409 154 437 7 76 -15 135 -73 193 -40 40 -62 54
-104 64 -29 7 -69 10 -89 7 -21 -3 -209 -71 -419 -151 -211 -80 -389 -146
-396 -146 -8 0 -42 46 -75 103 -34 56 -115 187 -179 292 -104 167 -124 193
-167 219 -68 42 -159 47 -231 13z m192 -23 c19 -10 46 -29 61 -44 22 -22 311
-481 351 -557 6 -13 22 -25 34 -28 14 -4 155 45 407 141 218 83 405 149 431
152 87 8 169 -39 211 -121 38 -76 27 -119 -136 -546 -127 -331 -146 -387 -137
-408 6 -13 19 -27 29 -31 10 -4 139 -81 287 -172 228 -140 272 -171 295 -208
56 -86 44 -195 -27 -264 -35 -33 -475 -310 -550 -346 -17 -8 -34 -25 -37 -37
-4 -15 45 -155 144 -415 163 -426 169 -452 131 -536 -33 -72 -115 -124 -198
-124 -25 0 -762 272 -812 300 -17 9 -71 -7 -71 -22 0 -15 -319 -530 -348 -562
-83 -89 -246 -85 -317 8 -29 39 -329 525 -338 548 -15 42 -47 34 -443 -117
-212 -81 -406 -150 -430 -153 -122 -13 -250 116 -231 235 5 27 209 573 283
757 22 54 22 60 8 87 -8 16 -19 29 -24 29 -11 0 -500 300 -546 335 -39 29 -66
85 -72 147 -6 60 32 145 79 180 39 29 503 316 535 330 28 13 47 54 35 76 -13
25 -282 731 -293 771 -34 120 79 261 209 261 31 0 151 -41 439 -151 279 -106
403 -149 420 -145 13 4 31 21 40 39 30 59 316 522 338 546 50 57 171 79 243
45z"/>
<path d="M1961 3793 c-11 -10 -77 -110 -146 -222 l-125 -204 42 6 c214 31 372
32 521 3 37 -7 67 -9 67 -4 0 15 -241 403 -262 421 -11 9 -33 17 -48 17 -15 0
-37 -8 -49 -17z"/>
<path d="M583 3450 c-26 -11 -43 -40 -43 -75 0 -27 240 -665 249 -664 3 0 26
32 51 71 62 98 265 302 367 369 51 33 78 56 70 60 -26 15 -649 249 -660 248
-7 0 -22 -4 -34 -9z"/>
<path d="M3060 3337 c-174 -67 -316 -126 -316 -132 0 -5 39 -37 85 -70 112
-79 250 -218 331 -333 35 -50 68 -88 72 -84 14 14 248 642 248 666 0 29 -52
76 -83 75 -12 0 -164 -56 -337 -122z"/>
<path d="M1825 3259 c-203 -30 -412 -116 -585 -242 -79 -58 -218 -200 -279
-287 -102 -144 -184 -336 -218 -507 -25 -131 -23 -358 5 -490 111 -516 493
-897 1014 -1009 115 -25 371 -25 488 -1 271 58 491 178 678 371 557 576 460
1507 -203 1956 -148 100 -339 176 -515 205 -102 16 -287 18 -385 4z m382 -214
c160 -30 330 -105 450 -198 77 -59 199 -188 246 -260 289 -436 227 -1016 -146
-1374 -200 -191 -426 -288 -699 -300 -210 -9 -365 24 -548 118 -339 173 -558
515 -577 900 -27 553 354 1025 907 1122 63 11 293 6 367 -8z"/>
<path d="M1244 2206 c-43 -19 -103 -81 -125 -130 -24 -54 -25 -148 0 -201 63
-139 221 -196 352 -127 60 31 113 93 129 150 14 51 13 125 -2 144 -16 20 -292
178 -310 178 -7 -1 -27 -7 -44 -14z"/>
<path d="M2585 2139 c-77 -44 -146 -87 -154 -94 -23 -22 -17 -126 9 -180 28
-58 91 -112 154 -130 63 -19 80 -19 147 1 95 28 179 140 179 239 0 43 -30 121
-61 158 -24 29 -112 87 -131 87 -2 0 -66 -36 -143 -81z"/>
<path d="M1584 1620 c-28 -11 -54 -48 -54 -76 0 -36 37 -71 123 -118 202 -109
412 -124 617 -45 98 38 198 102 210 134 14 38 -9 88 -49 105 -29 11 -36 10
-84 -15 -160 -86 -220 -105 -337 -105 -106 0 -191 23 -297 80 -98 53 -97 53
-129 40z"/>
<path d="M417 2177 c-108 -68 -205 -130 -214 -140 -21 -21 -22 -82 -2 -102 16
-16 421 -267 424 -263 2 2 -4 41 -11 88 -24 142 -17 420 12 523 3 9 2 17 -3
17 -4 -1 -97 -56 -206 -123z"/>
<path d="M3390 2292 c0 -5 7 -55 16 -113 17 -114 15 -326 -6 -432 -6 -32 -10
-63 -8 -68 3 -10 406 234 426 259 6 9 12 30 12 47 0 17 -6 39 -12 47 -7 9 -96
68 -198 131 -216 133 -230 141 -230 129z"/>
<path d="M3181 1199 c-88 -135 -235 -283 -379 -381 -41 -27 -72 -52 -70 -54 3
-2 152 -60 332 -129 233 -89 335 -123 352 -119 30 8 64 49 64 77 0 20 -237
655 -249 668 -3 4 -26 -24 -50 -62z"/>
<path d="M662 941 c-67 -175 -122 -330 -122 -345 0 -39 15 -61 49 -76 28 -11
52 -4 353 110 178 68 329 126 337 130 9 5 2 14 -25 30 -139 84 -313 251 -407
392 -29 43 -55 77 -58 78 -3 0 -60 -143 -127 -319z"/>
<path d="M1690 607 c0 -14 253 -415 271 -429 24 -21 48 -23 82 -7 15 7 68 83
145 208 66 108 124 204 127 212 5 14 -2 14 -72 1 -135 -25 -433 -17 -535 14
-10 3 -18 3 -18 1z"/>
</g>
</svg>
