<svg width="107" height="107" viewBox="0 0 107 107" fill="none" xmlns="http://www.w3.org/2000/svg">
<g filter="url(#filter0_d_704_445)">
<path fill-rule="evenodd" clip-rule="evenodd" d="M48.5215 3.17455C50.669 -0.31602 55.7427 -0.316056 57.8903 3.17444L65.3826 15.3517C65.6271 15.7492 65.8142 16.159 65.9477 16.5739C66.3113 16.7142 66.673 16.8606 67.0327 17.0132C67.2524 16.8934 67.4839 16.7864 67.7269 16.6938L85.9744 9.73632C90.4133 8.04386 94.7654 12.3959 93.073 16.8348L86.1159 35.0826C86.0218 35.3294 85.9129 35.5643 85.7908 35.787C85.9412 36.1421 86.0855 36.4992 86.2238 36.8581C86.6427 36.992 87.0567 37.1802 87.458 37.4271L99.6352 44.919C103.126 47.0666 103.126 52.1402 99.6353 54.2878L87.4581 61.7801C87.0568 62.027 86.6428 62.2153 86.2237 62.3491C86.0855 62.7079 85.9413 63.0649 85.791 63.42C85.9131 63.6427 86.022 63.8777 86.1161 64.1245L93.0736 82.3721C94.766 86.8109 90.4139 91.163 85.9751 89.4707L67.7273 82.5135C67.4842 82.4208 67.2526 82.3138 67.0329 82.1939C66.6732 82.3466 66.3115 82.493 65.9479 82.6332C65.8143 83.0481 65.6273 83.458 65.3828 83.8555L57.8909 96.0327C55.7433 99.5233 50.6697 99.5233 48.5221 96.0328L41.0298 83.8556C40.7882 83.4629 40.6027 83.0582 40.4695 82.6484C40.0992 82.5061 39.7308 82.3574 39.3644 82.2021C39.1492 82.3187 38.9227 82.4229 38.6852 82.5135L20.4377 89.4709C15.9988 91.1634 11.6467 86.8113 13.3391 82.3725L20.2962 64.1247C20.3854 63.8909 20.4878 63.6678 20.6021 63.4556C20.4445 63.0846 20.2936 62.7115 20.1493 62.3364C19.7437 62.2035 19.3431 62.0194 18.9543 61.7802L6.77713 54.2883C3.28656 52.1407 3.28653 47.0671 6.77703 44.9195L18.9542 37.4272C19.343 37.188 19.7437 37.0038 20.1493 36.8709C20.2936 36.4958 20.4445 36.1227 20.6021 35.7517C20.4877 35.5395 20.3854 35.3164 20.2963 35.0827L13.3388 16.8352C11.6463 12.3963 15.9984 8.04422 20.4373 9.73658L38.6851 16.6937C38.9226 16.7843 39.1491 16.8886 39.3644 17.0051C39.7307 16.8499 40.0991 16.7012 40.4694 16.5589C40.6026 16.1491 40.788 15.7444 41.0296 15.3518L48.5215 3.17455ZM56.5559 14.3637C54.3288 14.1522 52.0855 14.151 49.8583 14.3603L53.2059 8.91909L56.5559 14.3637ZM31.6526 21.504L21.0725 17.4703L25.1051 28.0468C26.0342 26.8395 27.0518 25.6785 28.1578 24.5725C29.2701 23.4602 30.438 22.4373 31.6526 21.504ZM17.9463 46.2662L12.5217 49.6038L17.9463 52.9413C17.7373 50.7216 17.7373 48.4859 17.9463 46.2662ZM25.1052 71.1606L21.0728 81.7372L31.6527 77.7033C30.4381 76.77 29.2701 75.7471 28.1578 74.6348C27.0518 73.5288 26.0343 72.3678 25.1052 71.1606ZM49.8586 84.847L53.2064 90.2882L56.5562 84.8435C54.3291 85.055 52.0858 85.0562 49.8586 84.847ZM74.7368 77.6944L85.3399 81.737L81.2958 71.1306C80.3605 72.3485 79.3353 73.5196 78.2201 74.6348C77.1113 75.7436 75.9472 76.7635 74.7368 77.6944ZM88.4295 52.9636L93.8907 49.6035L88.4295 46.2435C88.6413 48.4781 88.6413 50.729 88.4295 52.9636ZM81.2956 28.0764L85.3393 17.47L74.7366 21.5127C75.9471 22.4436 77.1113 23.4636 78.2201 24.5725C79.3352 25.6875 80.3604 26.8585 81.2956 28.0764ZM41.9718 75.7021C42.3332 75.8573 42.697 76.0046 43.0632 76.1441C43.8341 75.72 44.7306 75.4734 45.7141 75.4734H60.6984C61.6759 75.4734 62.5674 75.7169 63.3351 76.1363C63.7079 75.994 64.0783 75.8435 64.446 75.6849C64.7014 74.8906 65.1473 74.1355 65.7975 73.4853L77.0879 62.1949C77.7351 61.5477 78.486 61.1031 79.2761 60.8471C79.4367 60.4744 79.5888 60.0989 79.7326 59.721C79.3171 58.9559 79.076 58.0684 79.076 57.0957V42.1115C79.076 41.1388 79.3171 40.2513 79.7326 39.4862C79.5888 39.1084 79.4367 38.7329 79.2762 38.3603C78.4859 38.1043 77.7349 37.6596 77.0876 37.0123L65.7973 25.722C65.1469 25.0717 64.7011 24.3165 64.4457 23.5222C64.0781 23.3636 63.7077 23.2132 63.335 23.0709C62.5673 23.4903 61.6758 23.7338 60.6982 23.7338H45.714C44.7305 23.7338 43.834 23.4873 43.0631 23.0632C42.697 23.2027 42.3331 23.35 41.9718 23.5051C41.7174 24.3057 41.2698 25.067 40.6148 25.722L29.3245 37.0123C28.6664 37.6704 27.901 38.1191 27.0963 38.3729C26.943 38.7293 26.7974 39.0881 26.6595 39.4492C27.0874 40.2227 27.3364 41.1231 27.3364 42.1115L27.3364 57.0958C27.3364 58.0842 27.0874 58.9846 26.6595 59.7581C26.7974 60.1192 26.9431 60.478 27.0963 60.8343C27.9011 61.0882 28.6664 61.5369 29.3245 62.1949L40.6148 73.4853C41.2698 74.1403 41.7174 74.9015 41.9718 75.7021Z" fill="white"/>
</g>
<path d="M51.5024 5.00858C52.2834 3.73928 54.1283 3.73926 54.9093 5.00854L62.4016 17.1858C63.2214 18.5183 62.2627 20.2338 60.6982 20.2338L45.7139 20.2338C44.1494 20.2338 43.1907 18.5183 44.0105 17.1858L51.5024 5.00858Z" stroke="white" stroke-width="7"/>
<path d="M54.9097 94.1987C54.1288 95.468 52.2838 95.468 51.5029 94.1987L44.0105 82.0215C43.1907 80.689 44.1494 78.9734 45.714 78.9734L60.6982 78.9734C62.2627 78.9734 63.2214 80.6889 62.4016 82.0215L54.9097 94.1987Z" stroke="white" stroke-width="7"/>
<path d="M97.8012 47.9C99.0705 48.6809 99.0705 50.5259 97.8012 51.3068L85.624 58.7991C84.2915 59.619 82.576 58.6603 82.576 57.0957L82.576 42.1115C82.576 40.547 84.2914 39.5883 85.624 40.4081L97.8012 47.9Z" stroke="white" stroke-width="7"/>
<path d="M8.61117 51.3073C7.34188 50.5263 7.34186 48.6814 8.61113 47.9004L20.7883 40.4081C22.1209 39.5883 23.8364 40.547 23.8364 42.1115L23.8364 57.0958C23.8364 58.6603 22.1209 59.619 20.7884 58.7992L8.61117 51.3073Z" stroke="white" stroke-width="7"/>
<path d="M89.8032 83.619C90.4186 85.2331 88.8361 86.8157 87.2219 86.2003L68.9741 79.2431C67.6194 78.7266 67.2472 76.9853 68.2724 75.9601L79.5627 64.6698C80.5879 63.6446 82.3292 64.0168 82.8457 65.3715L89.8032 83.619Z" stroke="white" stroke-width="7"/>
<path d="M16.6094 15.5883C15.994 13.9741 17.5765 12.3916 19.1907 13.007L37.4385 19.9641C38.7932 20.4806 39.1654 22.2219 38.1402 23.2471L26.8498 34.5375C25.8247 35.5627 24.0834 35.1905 23.5669 33.8358L16.6094 15.5883Z" stroke="white" stroke-width="7"/>
<path d="M87.2216 13.0067C88.8357 12.3912 90.4183 13.9738 89.8029 15.5879L82.8457 33.8357C82.3292 35.1905 80.5879 35.5627 79.5627 34.5375L68.2724 23.2471C67.2472 22.2219 67.6194 20.4807 68.9741 19.9641L87.2216 13.0067Z" stroke="white" stroke-width="7"/>
<path d="M19.191 86.2006C17.5769 86.816 15.9943 85.2335 16.6097 83.6193L23.5669 65.3715C24.0834 64.0168 25.8247 63.6446 26.8499 64.6698L38.1402 75.9601C39.1654 76.9853 38.7932 78.7266 37.4385 79.2431L19.191 86.2006Z" stroke="white" stroke-width="7"/>
<path d="M51.5024 5.00858C52.2834 3.73928 54.1283 3.73926 54.9093 5.00854L62.4016 17.1858C63.2214 18.5183 62.2627 20.2338 60.6982 20.2338L45.7139 20.2338C44.1494 20.2338 43.1907 18.5183 44.0105 17.1858L51.5024 5.00858Z" fill="#9D5CFF"/>
<path d="M54.9097 94.1987C54.1288 95.468 52.2838 95.468 51.5029 94.1987L44.0105 82.0215C43.1907 80.689 44.1494 78.9734 45.714 78.9734L60.6982 78.9734C62.2627 78.9734 63.2214 80.6889 62.4016 82.0215L54.9097 94.1987Z" fill="#9D5CFF"/>
<path d="M97.8012 47.9C99.0705 48.6809 99.0705 50.5259 97.8012 51.3068L85.624 58.7991C84.2915 59.619 82.576 58.6603 82.576 57.0957L82.576 42.1115C82.576 40.547 84.2914 39.5883 85.624 40.4081L97.8012 47.9Z" fill="#9D5CFF"/>
<path d="M8.61117 51.3073C7.34188 50.5263 7.34186 48.6814 8.61113 47.9004L20.7883 40.4081C22.1209 39.5883 23.8364 40.547 23.8364 42.1115L23.8364 57.0958C23.8364 58.6603 22.1209 59.619 20.7884 58.7992L8.61117 51.3073Z" fill="#9D5CFF"/>
<path d="M89.8032 83.619C90.4186 85.2331 88.8361 86.8157 87.2219 86.2003L68.9741 79.2431C67.6194 78.7266 67.2472 76.9853 68.2724 75.9601L79.5627 64.6698C80.5879 63.6446 82.3292 64.0168 82.8457 65.3715L89.8032 83.619Z" fill="#9D5CFF"/>
<path d="M16.6094 15.5883C15.994 13.9741 17.5765 12.3916 19.1907 13.007L37.4385 19.9641C38.7932 20.4806 39.1654 22.2219 38.1402 23.2471L26.8499 34.5375C25.8247 35.5627 24.0834 35.1905 23.5669 33.8358L16.6094 15.5883Z" fill="#9D5CFF"/>
<path d="M87.2216 13.0067C88.8357 12.3912 90.4183 13.9738 89.8029 15.5879L82.8457 33.8357C82.3292 35.1905 80.5879 35.5627 79.5627 34.5375L68.2724 23.2471C67.2472 22.2219 67.6194 20.4807 68.9741 19.9641L87.2216 13.0067Z" fill="#9D5CFF"/>
<path d="M19.191 86.2006C17.5769 86.816 15.9943 85.2335 16.6097 83.6193L23.5669 65.3715C24.0834 64.0168 25.8247 63.6446 26.8499 64.6698L38.1402 75.9601C39.1654 76.9853 38.7932 78.7266 37.4385 79.2431L19.191 86.2006Z" fill="#9D5CFF"/>
<circle cx="53.189" cy="49.6036" r="31.8994" transform="rotate(45 53.189 49.6036)" stroke="white" stroke-width="7"/>
<circle cx="53.189" cy="49.6036" r="29.5485" transform="rotate(45 53.189 49.6036)" fill="white" stroke="#9D5CFF" stroke-width="5"/>
<path fill-rule="evenodd" clip-rule="evenodd" d="M35.3988 43.7364C32.6057 44.3972 30.5273 46.9069 30.5273 49.902C30.5273 53.401 33.3639 56.2375 36.8629 56.2375C40.3619 56.2375 43.1985 53.401 43.1985 49.902C43.1985 49.2713 43.1063 48.6622 42.9348 48.0873L35.3988 43.7364Z" fill="#9D5CFF"/>
<path fill-rule="evenodd" clip-rule="evenodd" d="M71.0798 43.8657C73.8152 44.5128 75.8506 46.9705 75.8506 49.9037C75.8506 53.3304 73.0727 56.1082 69.6461 56.1082C66.2194 56.1082 63.4416 53.3304 63.4416 49.9037C63.4416 49.2861 63.5318 48.6895 63.6999 48.1265L71.0798 43.8657Z" fill="#9D5CFF"/>
<path d="M43.3572 60.6744L45.0456 61.6755C50.0768 64.6587 56.3349 64.6587 61.3661 61.6755L63.0544 60.6744" stroke="#9D5CFF" stroke-width="4" stroke-miterlimit="16" stroke-linecap="round"/>
<defs>
<filter id="filter0_d_704_445" x="0.15918" y="0.556595" width="106.094" height="106.094" filterUnits="userSpaceOnUse" color-interpolation-filters="sRGB">
<feFlood flood-opacity="0" result="BackgroundImageFix"/>
<feColorMatrix in="SourceAlpha" type="matrix" values="0 0 0 0 0 0 0 0 0 0 0 0 0 0 0 0 0 0 127 0" result="hardAlpha"/>
<feOffset dy="4"/>
<feGaussianBlur stdDeviation="2"/>
<feComposite in2="hardAlpha" operator="out"/>
<feColorMatrix type="matrix" values="0 0 0 0 0 0 0 0 0 0 0 0 0 0 0 0 0 0 0.25 0"/>
<feBlend mode="normal" in2="BackgroundImageFix" result="effect1_dropShadow_704_445"/>
<feBlend mode="normal" in="SourceGraphic" in2="effect1_dropShadow_704_445" result="shape"/>
</filter>
</defs>
</svg>
