<svg width="94" height="94" viewBox="0 0 94 94" fill="none" xmlns="http://www.w3.org/2000/svg">
<g filter="url(#filter0_d_58_705)">
<circle cx="46.6681" cy="42.9073" r="29.7169" fill="#C4C4C4"/>
<path fill-rule="evenodd" clip-rule="evenodd" d="M40.4355 8.84534C40.4355 6.08392 42.6741 3.84534 45.4355 3.84534H47.901C50.6624 3.84534 52.901 6.08391 52.901 8.84534V13.8451C56.4858 14.6102 59.8311 16.0218 62.8091 17.9519L66.3463 14.4147C68.2989 12.4621 71.4647 12.4621 73.4174 14.4147L75.1607 16.1581C77.1133 18.1107 77.1133 21.2765 75.1607 23.2291L71.6235 26.7663C73.5537 29.7444 74.9652 33.0898 75.7303 36.6746H80.73C83.4914 36.6746 85.73 38.9132 85.73 41.6746V44.1401C85.73 46.9015 83.4914 49.1401 80.73 49.1401H75.7303C74.9652 52.7248 73.5537 56.0702 71.6235 59.0482L75.1608 62.5854C77.1134 64.5381 77.1134 67.7039 75.1608 69.6565L73.4174 71.3998C71.4648 73.3525 68.299 73.3525 66.3464 71.3998L62.8092 67.8626C60.2034 69.5515 57.3163 70.8434 54.2337 71.6525C53.7933 71.7681 53.349 71.8739 52.9009 71.9696V76.9692C52.9009 79.7307 50.6623 81.9692 47.9009 81.9692H45.4354C42.674 81.9692 40.4354 79.7307 40.4354 76.9692V71.9695C36.8506 71.2045 33.5052 69.7929 30.5272 67.8628L26.9901 71.3998C25.0375 73.3524 21.8717 73.3524 19.9191 71.3998L18.1757 69.6565C16.2231 67.7039 16.2231 64.5381 18.1757 62.5854L21.7127 59.0484C19.7825 56.0703 18.3709 52.7248 17.6058 49.14H12.6064C9.84503 49.14 7.60645 46.9014 7.60645 44.14V41.6745C7.60645 38.9131 9.84502 36.6745 12.6064 36.6745H17.6059C17.7015 36.2264 17.8072 35.782 17.9228 35.3417C18.732 32.2591 20.0238 29.372 21.7127 26.7662L18.1757 23.2291C16.2231 21.2765 16.223 18.1107 18.1757 16.1581L19.919 14.4147C21.8716 12.4621 25.0374 12.4621 26.9901 14.4147L30.5271 17.9518C33.5052 16.0217 36.8507 14.6101 40.4355 13.845V8.84534Z" fill="#9D5CFF"/>
<path d="M52.901 13.8451H49.401V16.6769L52.1704 17.268L52.901 13.8451ZM62.8091 17.9519L60.9056 20.889L63.2817 22.429L65.284 20.4268L62.8091 17.9519ZM66.3463 14.4147L63.8714 11.9399L66.3463 14.4147ZM73.4174 14.4147L70.9425 16.8896L70.9425 16.8896L73.4174 14.4147ZM75.1607 16.1581L77.6356 13.6832L77.6356 13.6832L75.1607 16.1581ZM75.1607 23.2291L77.6356 25.704L75.1607 23.2291ZM71.6235 26.7663L69.1486 24.2914L67.1464 26.2937L68.6864 28.6699L71.6235 26.7663ZM75.7303 36.6746L72.3074 37.4051L72.8985 40.1746H75.7303V36.6746ZM75.7303 49.1401V45.6401H72.8985L72.3074 48.4095L75.7303 49.1401ZM71.6235 59.0482L68.6865 57.1446L67.1464 59.5208L69.1487 61.5231L71.6235 59.0482ZM75.1608 62.5854L77.6356 60.1106L77.6356 60.1106L75.1608 62.5854ZM75.1608 69.6565L72.6859 67.1816L72.6859 67.1816L75.1608 69.6565ZM73.4174 71.3998L75.8923 73.8747L73.4174 71.3998ZM66.3464 71.3998L63.8715 73.8747L63.8715 73.8747L66.3464 71.3998ZM62.8092 67.8626L65.284 65.3878L63.2818 63.3855L60.9056 64.9256L62.8092 67.8626ZM54.2337 71.6525L53.3451 68.2672H53.3451L54.2337 71.6525ZM52.9009 71.9696L52.1703 68.5466L49.4009 69.1377V71.9696H52.9009ZM40.4354 71.9695H43.9354V69.1377L41.166 68.5466L40.4354 71.9695ZM30.5272 67.8628L32.4308 64.9257L30.0546 63.3856L28.0523 65.3879L30.5272 67.8628ZM18.1757 69.6565L20.6506 67.1816L20.6506 67.1816L18.1757 69.6565ZM18.1757 62.5854L20.6506 65.0603H20.6506L18.1757 62.5854ZM21.7127 59.0484L24.1876 61.5233L26.1899 59.521L24.6498 57.1448L21.7127 59.0484ZM17.6058 49.14L21.0288 48.4094L20.4377 45.64H17.6058V49.14ZM17.6059 36.6745V40.1745H20.4377L21.0288 37.4051L17.6059 36.6745ZM17.9228 35.3417L21.3082 36.2303L21.3082 36.2303L17.9228 35.3417ZM21.7127 26.7662L24.6498 28.6698L26.1899 26.2936L24.1876 24.2913L21.7127 26.7662ZM18.1757 23.2291L15.7008 25.704L18.1757 23.2291ZM18.1757 16.1581L15.7008 13.6832H15.7008L18.1757 16.1581ZM19.919 14.4147L22.3939 16.8896H22.3939L19.919 14.4147ZM26.9901 14.4147L29.4649 11.9399L26.9901 14.4147ZM30.5271 17.9518L28.0523 20.4267L30.0545 22.429L32.4307 20.8889L30.5271 17.9518ZM40.4355 13.845L41.1661 17.2679L43.9355 16.6769V13.845H40.4355ZM45.4355 0.345337C40.7411 0.345337 36.9355 4.15092 36.9355 8.84534H43.9355C43.9355 8.01691 44.6071 7.34534 45.4355 7.34534V0.345337ZM47.901 0.345337H45.4355V7.34534H47.901V0.345337ZM56.401 8.84534C56.401 4.15092 52.5954 0.345337 47.901 0.345337V7.34534C48.7294 7.34534 49.401 8.0169 49.401 8.84534H56.401ZM56.401 13.8451V8.84534H49.401V13.8451H56.401ZM64.7127 15.0148C61.3841 12.8574 57.6423 11.2782 53.6315 10.4222L52.1704 17.268C55.3292 17.9422 58.2781 19.1861 60.9056 20.889L64.7127 15.0148ZM63.8714 11.9399L60.3343 15.477L65.284 20.4268L68.8212 16.8896L63.8714 11.9399ZM75.8922 11.9399C72.5728 8.62041 67.1909 8.62042 63.8714 11.9399L68.8212 16.8896C69.407 16.3038 70.3567 16.3038 70.9425 16.8896L75.8922 11.9399ZM77.6356 13.6832L75.8922 11.9399L70.9425 16.8896L72.6858 18.633L77.6356 13.6832ZM77.6356 25.704C80.955 22.3846 80.955 17.0027 77.6356 13.6832L72.6858 18.633C73.2716 19.2187 73.2716 20.1685 72.6858 20.7543L77.6356 25.704ZM74.0984 29.2412L77.6356 25.704L72.6858 20.7543L69.1486 24.2914L74.0984 29.2412ZM79.1532 35.9441C78.2972 31.9332 76.718 28.1914 74.5606 24.8627L68.6864 28.6699C70.3894 31.2973 71.6332 34.2463 72.3074 37.4051L79.1532 35.9441ZM80.73 33.1746H75.7303V40.1746H80.73V33.1746ZM89.23 41.6746C89.23 36.9802 85.4244 33.1746 80.73 33.1746V40.1746C81.5584 40.1746 82.23 40.8462 82.23 41.6746H89.23ZM89.23 44.1401V41.6746H82.23V44.1401H89.23ZM80.73 52.6401C85.4244 52.6401 89.23 48.8345 89.23 44.1401H82.23C82.23 44.9685 81.5584 45.6401 80.73 45.6401V52.6401ZM75.7303 52.6401H80.73V45.6401H75.7303V52.6401ZM74.5606 60.9518C76.718 57.6231 78.2972 53.8814 79.1532 49.8706L72.3074 48.4095C71.6332 51.5683 70.3893 54.5172 68.6865 57.1446L74.5606 60.9518ZM77.6356 60.1106L74.0984 56.5733L69.1487 61.5231L72.6859 65.0603L77.6356 60.1106ZM77.6356 72.1314C80.9551 68.8119 80.9551 63.43 77.6356 60.1106L72.6859 65.0603C73.2717 65.6461 73.2717 66.5958 72.6859 67.1816L77.6356 72.1314ZM75.8923 73.8747L77.6356 72.1314L72.6859 67.1816L70.9425 68.925L75.8923 73.8747ZM63.8715 73.8747C67.1909 77.1942 72.5728 77.1942 75.8923 73.8747L70.9425 68.925C70.3568 69.5107 69.407 69.5108 68.8212 68.925L63.8715 73.8747ZM60.3343 70.3375L63.8715 73.8747L68.8212 68.925L65.284 65.3878L60.3343 70.3375ZM55.1223 75.0378C58.5714 74.1325 61.8003 72.6874 64.7128 70.7997L60.9056 64.9256C58.6064 66.4157 56.0612 67.5543 53.3451 68.2672L55.1223 75.0378ZM53.6314 75.3925C54.1329 75.2854 54.6299 75.1671 55.1223 75.0378L53.3451 68.2672C52.9568 68.3691 52.5651 68.4624 52.1703 68.5466L53.6314 75.3925ZM56.4009 76.9692V71.9696H49.4009V76.9692H56.4009ZM47.9009 85.4692C52.5953 85.4692 56.4009 81.6637 56.4009 76.9692H49.4009C49.4009 77.7977 48.7293 78.4692 47.9009 78.4692V85.4692ZM45.4354 85.4692H47.9009V78.4692H45.4354V85.4692ZM36.9354 76.9692C36.9354 81.6637 40.741 85.4692 45.4354 85.4692V78.4692C44.607 78.4692 43.9354 77.7977 43.9354 76.9692H36.9354ZM36.9354 71.9695V76.9692H43.9354V71.9695H36.9354ZM28.6236 70.7998C31.9523 72.9572 35.6941 74.5364 39.7049 75.3924L41.166 68.5466C38.0072 67.8725 35.0582 66.6286 32.4308 64.9257L28.6236 70.7998ZM29.465 73.8747L33.0021 70.3376L28.0523 65.3879L24.5153 68.9249L29.465 73.8747ZM17.4442 73.8747C20.7636 77.1942 26.1455 77.1942 29.465 73.8747L24.5153 68.9249C23.9295 69.5107 22.9797 69.5107 22.3939 68.9249L17.4442 73.8747ZM15.7009 72.1314L17.4442 73.8747L22.3939 68.9249L20.6506 67.1816L15.7009 72.1314ZM15.7009 60.1106C12.3814 63.43 12.3814 68.8119 15.7009 72.1314L20.6506 67.1816C20.0648 66.5958 20.0648 65.6461 20.6506 65.0603L15.7009 60.1106ZM19.2379 56.5735L15.7009 60.1106L20.6506 65.0603L24.1876 61.5233L19.2379 56.5735ZM14.1829 49.8705C15.039 53.8814 16.6182 57.6233 18.7757 60.952L24.6498 57.1448C22.9469 54.5173 21.7029 51.5683 21.0288 48.4094L14.1829 49.8705ZM12.6064 52.64H17.6058V45.64H12.6064V52.64ZM4.10645 44.14C4.10645 48.8344 7.91203 52.64 12.6064 52.64V45.64C11.778 45.64 11.1064 44.9684 11.1064 44.14H4.10645ZM4.10645 41.6745V44.14H11.1064V41.6745H4.10645ZM12.6064 33.1745C7.91203 33.1745 4.10645 36.9801 4.10645 41.6745H11.1064C11.1064 40.8461 11.778 40.1745 12.6064 40.1745V33.1745ZM17.6059 33.1745H12.6064V40.1745H17.6059V33.1745ZM14.5375 34.4531C14.4082 34.9457 14.2899 35.4428 14.183 35.944L21.0288 37.4051C21.1131 37.01 21.2063 36.6184 21.3082 36.2303L14.5375 34.4531ZM18.7757 24.8626C16.888 27.7751 15.4428 31.004 14.5375 34.4531L21.3082 36.2303C22.0211 33.5141 23.1596 30.9689 24.6498 28.6698L18.7757 24.8626ZM15.7008 25.704L19.2379 29.2411L24.1876 24.2913L20.6505 20.7543L15.7008 25.704ZM15.7008 13.6832C12.3813 17.0027 12.3813 22.3846 15.7008 25.704L20.6505 20.7543C20.0648 20.1685 20.0648 19.2187 20.6505 18.6329L15.7008 13.6832ZM17.4441 11.9399L15.7008 13.6832L20.6505 18.6329L22.3939 16.8896L17.4441 11.9399ZM29.4649 11.9399C26.1455 8.62042 20.7636 8.6204 17.4441 11.9399L22.3939 16.8896C22.9797 16.3038 23.9294 16.3038 24.5152 16.8896L29.4649 11.9399ZM33.002 15.477L29.4649 11.9399L24.5152 16.8896L28.0523 20.4267L33.002 15.477ZM39.705 10.4221C35.6941 11.2781 31.9523 12.8573 28.6236 15.0148L32.4307 20.8889C35.0582 19.186 38.0072 17.9421 41.1661 17.2679L39.705 10.4221ZM36.9355 8.84534V13.845H43.9355V8.84534H36.9355Z" fill="white"/>
<rect x="40.4355" y="3.84534" width="12.4654" height="68.7789" rx="5" fill="#9D5CFF"/>
<rect x="52.9009" y="81.9692" width="12.4654" height="68.7789" rx="5" transform="rotate(-180 52.9009 81.9692)" fill="#9D5CFF"/>
<rect x="85.73" y="36.6746" width="12.4654" height="68.7789" rx="5" transform="rotate(90 85.73 36.6746)" fill="#9D5CFF"/>
<rect x="7.60645" y="49.14" width="12.4654" height="68.7789" rx="5" transform="rotate(-90 7.60645 49.14)" fill="#9D5CFF"/>
<rect x="69.8818" y="10.8792" width="12.4654" height="68.7789" rx="5" transform="rotate(45 69.8818 10.8792)" fill="#9D5CFF"/>
<rect x="23.4546" y="74.9354" width="12.4654" height="68.7789" rx="5" transform="rotate(-135 23.4546 74.9354)" fill="#9D5CFF"/>
<rect x="78.6963" y="66.121" width="12.4654" height="68.7789" rx="5" transform="rotate(135 78.6963 66.121)" fill="#9D5CFF"/>
<rect x="14.6401" y="19.6936" width="12.4654" height="68.7789" rx="5" transform="rotate(-45 14.6401 19.6936)" fill="#9D5CFF"/>
<circle cx="46.6681" cy="42.9073" r="27.2169" fill="white" stroke="#9D5CFF" stroke-width="5"/>
<circle cx="46.6682" cy="42.9073" r="17.3967" stroke="#9D5CFF" stroke-width="5"/>
</g>
<defs>
<filter id="filter0_d_58_705" x="0.106445" y="0.345337" width="93.1235" height="93.1239" filterUnits="userSpaceOnUse" color-interpolation-filters="sRGB">
<feFlood flood-opacity="0" result="BackgroundImageFix"/>
<feColorMatrix in="SourceAlpha" type="matrix" values="0 0 0 0 0 0 0 0 0 0 0 0 0 0 0 0 0 0 127 0" result="hardAlpha"/>
<feOffset dy="4"/>
<feGaussianBlur stdDeviation="2"/>
<feComposite in2="hardAlpha" operator="out"/>
<feColorMatrix type="matrix" values="0 0 0 0 0 0 0 0 0 0 0 0 0 0 0 0 0 0 0.25 0"/>
<feBlend mode="normal" in2="BackgroundImageFix" result="effect1_dropShadow_58_705"/>
<feBlend mode="normal" in="SourceGraphic" in2="effect1_dropShadow_58_705" result="shape"/>
</filter>
</defs>
</svg>
