<svg width="97" height="94" viewBox="0 0 97 94" fill="none" xmlns="http://www.w3.org/2000/svg">
<g filter="url(#filter0_d_225_232)">
<path fill-rule="evenodd" clip-rule="evenodd" d="M47.4345 81.6819C69.0078 81.6819 86.4965 64.1933 86.4965 42.62C86.4965 34.2084 83.8377 26.4179 79.3148 20.0428C80.3245 20.7387 81.5484 21.1461 82.8674 21.1461C86.3291 21.1461 89.1354 18.3398 89.1354 14.8781C89.1354 11.4163 86.3291 8.61005 82.8674 8.61005C79.4057 8.61005 76.5994 11.4163 76.5994 14.8781C76.5994 15.6575 76.7416 16.4037 77.0016 17.0921C69.8388 8.80328 59.2492 3.55804 47.4345 3.55804C25.8612 3.55804 8.37256 21.0467 8.37256 42.62C8.37256 64.1933 25.8612 81.6819 47.4345 81.6819Z" fill="#9D5CFF"/>
<path d="M79.3148 20.0428L81.3009 17.1609L76.4603 22.068L79.3148 20.0428ZM77.0016 17.0921L74.3534 19.3806L80.2759 15.8556L77.0016 17.0921ZM82.9965 42.62C82.9965 62.2603 67.0748 78.1819 47.4345 78.1819V85.1819C70.9408 85.1819 89.9965 66.1263 89.9965 42.62H82.9965ZM76.4603 22.068C80.5771 27.8707 82.9965 34.9576 82.9965 42.62H89.9965C89.9965 33.4593 87.0984 24.965 82.1694 18.0176L76.4603 22.068ZM82.8674 17.6461C82.2802 17.6461 81.7453 17.4671 81.3009 17.1609L77.3287 22.9247C78.9038 24.0102 80.8166 24.6461 82.8674 24.6461V17.6461ZM85.6354 14.8781C85.6354 16.4068 84.3961 17.6461 82.8674 17.6461V24.6461C88.2621 24.6461 92.6354 20.2728 92.6354 14.8781H85.6354ZM82.8674 12.11C84.3961 12.11 85.6354 13.3493 85.6354 14.8781H92.6354C92.6354 9.48334 88.2621 5.11005 82.8674 5.11005V12.11ZM80.0994 14.8781C80.0994 13.3493 81.3387 12.11 82.8674 12.11V5.11005C77.4727 5.11005 73.0994 9.48334 73.0994 14.8781H80.0994ZM80.2759 15.8556C80.1629 15.5563 80.0994 15.2286 80.0994 14.8781H73.0994C73.0994 16.0864 73.3204 17.2511 73.7273 18.3286L80.2759 15.8556ZM47.4345 7.05804C58.1898 7.05804 67.8271 11.8283 74.3534 19.3806L79.6498 14.8037C71.8504 5.77825 60.3085 0.0580444 47.4345 0.0580444V7.05804ZM11.8726 42.62C11.8726 22.9797 27.7942 7.05804 47.4345 7.05804V0.0580444C23.9282 0.0580444 4.87256 19.1137 4.87256 42.62H11.8726ZM47.4345 78.1819C27.7942 78.1819 11.8726 62.2603 11.8726 42.62H4.87256C4.87256 66.1263 23.9282 85.1819 47.4345 85.1819V78.1819Z" fill="white"/>
</g>
<circle cx="47.4345" cy="42.62" r="36.562" fill="white" stroke="#9D5CFF" stroke-width="5"/>
<circle cx="47.4344" cy="42.62" r="29.0682" fill="white" stroke="#9D5CFF" stroke-width="5"/>
<path d="M47.4348 19.2302L54.2489 35.8059L70.8246 42.62L54.2489 49.4341L47.4348 66.0098L40.6206 49.4341L24.0449 42.62L40.6206 35.8059L47.4348 19.2302Z" fill="#9D5CFF"/>
<path d="M62.017 28.0376L53.8688 42.62L62.017 57.2025L47.4346 49.0543L32.8521 57.2025L41.0003 42.62L32.8521 28.0376L47.4346 36.1857L62.017 28.0376Z" fill="#9D5CFF"/>
<circle cx="47.4348" cy="42.62" r="6.26803" fill="white"/>
<circle cx="82.8674" cy="14.8781" r="6.26803" fill="#9D5CFF"/>
<defs>
<filter id="filter0_d_225_232" x="0.872559" y="0.0580444" width="95.7629" height="93.1239" filterUnits="userSpaceOnUse" color-interpolation-filters="sRGB">
<feFlood flood-opacity="0" result="BackgroundImageFix"/>
<feColorMatrix in="SourceAlpha" type="matrix" values="0 0 0 0 0 0 0 0 0 0 0 0 0 0 0 0 0 0 127 0" result="hardAlpha"/>
<feOffset dy="4"/>
<feGaussianBlur stdDeviation="2"/>
<feComposite in2="hardAlpha" operator="out"/>
<feColorMatrix type="matrix" values="0 0 0 0 0 0 0 0 0 0 0 0 0 0 0 0 0 0 0.25 0"/>
<feBlend mode="normal" in2="BackgroundImageFix" result="effect1_dropShadow_225_232"/>
<feBlend mode="normal" in="SourceGraphic" in2="effect1_dropShadow_225_232" result="shape"/>
</filter>
</defs>
</svg>
