<svg width="18" height="18" viewBox="0 0 18 18" fill="none" xmlns="http://www.w3.org/2000/svg">
<circle cx="9" cy="9.00323" r="3.66357" fill="#36106E"/>
<path fill-rule="evenodd" clip-rule="evenodd" d="M8.99994 0.414185C9.40172 0.414185 9.72742 0.739888 9.72742 1.14166L9.72742 3.88C9.72742 4.28178 9.40172 4.60748 8.99994 4.60748C8.59817 4.60748 8.27246 4.28178 8.27246 3.88L8.27246 1.14166C8.27246 0.739888 8.59816 0.414185 8.99994 0.414185Z" fill="#36106E"/>
<path fill-rule="evenodd" clip-rule="evenodd" d="M8.99994 13.3925C9.40172 13.3925 9.72742 13.7182 9.72742 14.12L9.72742 16.8583C9.72742 17.2601 9.40172 17.5858 8.99994 17.5858C8.59817 17.5858 8.27246 17.2601 8.27246 16.8583L8.27246 14.12C8.27246 13.7182 8.59816 13.3925 8.99994 13.3925Z" fill="#36106E"/>
<path fill-rule="evenodd" clip-rule="evenodd" d="M17.5859 9.00006C17.5859 9.40184 17.2602 9.72754 16.8585 9.72754L14.1201 9.72754C13.7183 9.72754 13.3926 9.40184 13.3926 9.00006C13.3926 8.59829 13.7183 8.27258 14.1201 8.27258L16.8585 8.27258C17.2602 8.27258 17.5859 8.59829 17.5859 9.00006Z" fill="#36106E"/>
<path fill-rule="evenodd" clip-rule="evenodd" d="M4.60742 9C4.60742 9.40178 4.28172 9.72748 3.87994 9.72748L1.1416 9.72748C0.739828 9.72748 0.414125 9.40178 0.414125 9C0.414125 8.59823 0.739828 8.27252 1.1416 8.27252L3.87994 8.27252C4.28172 8.27252 4.60742 8.59823 4.60742 9Z" fill="#36106E"/>
<path fill-rule="evenodd" clip-rule="evenodd" d="M15.0715 15.0712C14.7874 15.3553 14.3268 15.3553 14.0427 15.0712L12.1064 13.1349C11.8223 12.8508 11.8223 12.3902 12.1064 12.1061C12.3905 11.822 12.8511 11.822 13.1352 12.1061L15.0715 14.0424C15.3556 14.3265 15.3556 14.7871 15.0715 15.0712Z" fill="#36106E"/>
<path fill-rule="evenodd" clip-rule="evenodd" d="M5.89429 5.89392C5.61019 6.17802 5.14957 6.17802 4.86547 5.89392L2.92918 3.95763C2.64508 3.67353 2.64508 3.21291 2.92918 2.92881C3.21328 2.64472 3.67389 2.64472 3.95799 2.92881L5.89429 4.86511C6.17838 5.14921 6.17838 5.60982 5.89429 5.89392Z" fill="#36106E"/>
<path fill-rule="evenodd" clip-rule="evenodd" d="M2.92895 15.071C2.64485 14.7869 2.64485 14.3263 2.92895 14.0422L4.86525 12.1059C5.14935 11.8218 5.60996 11.8218 5.89406 12.1059C6.17816 12.39 6.17816 12.8506 5.89406 13.1347L3.95777 15.071C3.67367 15.3551 3.21305 15.3551 2.92895 15.071Z" fill="#36106E"/>
<path fill-rule="evenodd" clip-rule="evenodd" d="M12.1062 5.8941C11.8221 5.61 11.8221 5.14939 12.1062 4.86529L14.0425 2.92899C14.3266 2.64489 14.7872 2.64489 15.0713 2.92899C15.3554 3.21309 15.3554 3.67371 15.0713 3.95781L13.135 5.8941C12.8509 6.1782 12.3903 6.1782 12.1062 5.8941Z" fill="#36106E"/>
</svg>
