<svg width="19" height="18" viewBox="0 0 19 18" fill="none" xmlns="http://www.w3.org/2000/svg">
<path fill-rule="evenodd" clip-rule="evenodd" d="M9.16352 13.9031H9.00049H7.65912H6.26215C5.86037 13.9031 5.53467 14.2288 5.53467 14.6306C5.53467 15.0324 5.86037 15.3581 6.26215 15.3581H7.65912L9.00049 15.3581L9.00079 15.3581H9.16352L10.3975 15.3581C10.3976 15.3581 10.3977 15.3581 10.3978 15.3581L11.9019 15.3581C12.3036 15.3581 12.6293 15.0324 12.6293 14.6306C12.6293 14.2288 12.3036 13.9031 11.9019 13.9031H10.3975H9.16352Z" fill="#36106E"/>
<path fill-rule="evenodd" clip-rule="evenodd" d="M8.35449 11.7292L8.35449 11.8922L8.35449 13.2336L8.35449 14.6306C8.35449 15.0324 8.6802 15.3581 9.08197 15.3581C9.48375 15.3581 9.80945 15.0324 9.80945 14.6306L9.80945 13.2336L9.80945 11.8922L9.80945 11.8919L9.80945 11.7292L9.80945 10.4953C9.80945 10.4952 9.80945 10.4951 9.80945 10.495L9.80945 8.99088C9.80945 8.5891 9.48375 8.2634 9.08197 8.2634C8.6802 8.2634 8.35449 8.5891 8.35449 8.99088L8.35449 10.4953L8.35449 11.7292Z" fill="#36106E"/>
<rect x="2.89331" y="2.64194" width="12.3773" height="8.69228" rx="1" fill="#36106E"/>
</svg>
