<svg width="104" height="91" viewBox="0 0 104 91" fill="none" xmlns="http://www.w3.org/2000/svg">
<g filter="url(#filter0_d_1106_329)">
<path fill-rule="evenodd" clip-rule="evenodd" d="M43.4375 11.0416C43.4375 8.2802 45.6761 6.04163 48.4375 6.04163H88.4375C91.1989 6.04163 93.4375 8.2802 93.4375 11.0416V36.6791C93.4375 39.4405 91.1989 41.6791 88.4375 41.6791H82.2853L81.8018 42.0876V62.6469C81.8018 65.4083 79.5632 67.6469 76.8018 67.6469H48.4243L38.1763 76.3027C37.8037 76.6175 37.2584 76.6175 36.8858 76.3027L26.6377 67.6469H15.8018C13.0403 67.6469 10.8018 65.4083 10.8018 62.6469V22.0416C10.8018 19.2802 13.0403 17.0416 15.8018 17.0416H43.4375V11.0416Z" fill="white"/>
</g>
<g filter="url(#filter1_d_1106_329)">
<path fill-rule="evenodd" clip-rule="evenodd" d="M37.4375 11.0416C37.4375 4.9665 42.3624 0.041626 48.4375 0.041626H88.4375C94.5126 0.041626 99.4375 4.96649 99.4375 11.0416V36.6791C99.4375 42.7542 94.5126 47.6791 88.4375 47.6791H87.8018V62.6469C87.8018 68.722 82.8769 73.6469 76.8018 73.6469H50.6192L42.0479 80.8865C39.4396 83.0896 35.6225 83.0896 33.0142 80.8865L24.4429 73.6469H15.8018C9.72663 73.6469 4.80176 68.722 4.80176 62.6469V22.0416C4.80176 15.9665 9.72663 11.0416 15.8018 11.0416L37.4375 11.0416ZM49.4375 12.0416V23.0416H16.8018V61.6469H28.8326L37.531 68.9939L46.2295 61.6469H75.8018V39.3015L80.0905 35.6791H87.4375V12.0416H49.4375Z" fill="white"/>
</g>
<path fill-rule="evenodd" clip-rule="evenodd" d="M48.4375 6.04163C45.6761 6.04163 43.4375 8.2802 43.4375 11.0416V36.6791C43.4375 39.4405 45.6761 41.6791 48.4375 41.6791H66.9426L73.9687 47.6136C74.3413 47.9283 74.8867 47.9283 75.2593 47.6136L82.2853 41.6791H88.4375C91.1989 41.6791 93.4375 39.4405 93.4375 36.6791V11.0416C93.4375 8.2802 91.1989 6.04163 88.4375 6.04163H48.4375Z" fill="#9D5CFF"/>
<path fill-rule="evenodd" clip-rule="evenodd" d="M48.4375 8.54163C47.0568 8.54163 45.9375 9.66091 45.9375 11.0416V36.6791C45.9375 38.0598 47.0568 39.1791 48.4375 39.1791H67.8572L74.614 44.8862L81.3708 39.1791H88.4375C89.8182 39.1791 90.9375 38.0598 90.9375 36.6791V11.0416C90.9375 9.66092 89.8182 8.54163 88.4375 8.54163H48.4375ZM40.9375 11.0416C40.9375 6.89949 44.2954 3.54163 48.4375 3.54163H88.4375C92.5796 3.54163 95.9375 6.89949 95.9375 11.0416V36.6791C95.9375 40.8212 92.5796 44.1791 88.4375 44.1791H83.1999L76.8724 49.5235C75.5683 50.625 73.6597 50.6251 72.3556 49.5235L66.0281 44.1791H48.4375C44.2954 44.1791 40.9375 40.8213 40.9375 36.6791V11.0416Z" fill="#9D5CFF"/>
<path fill-rule="evenodd" clip-rule="evenodd" d="M76.8018 17.0416C79.5632 17.0416 81.8018 19.2802 81.8018 22.0416V62.6469C81.8018 65.4083 79.5632 67.6469 76.8018 67.6469H48.4243L38.1763 76.3027C37.8037 76.6175 37.2584 76.6175 36.8858 76.3027L26.6377 67.6469H15.8018C13.0403 67.6469 10.8018 65.4083 10.8018 62.6469V22.0416C10.8018 19.2802 13.0403 17.0416 15.8018 17.0416H76.8018Z" fill="white"/>
<path fill-rule="evenodd" clip-rule="evenodd" d="M76.8018 19.5416C78.1825 19.5416 79.3018 20.6609 79.3018 22.0416V62.6469C79.3018 64.0276 78.1825 65.1469 76.8018 65.1469H47.5098L37.531 73.5753L27.5522 65.1469H15.8018C14.4211 65.1469 13.3018 64.0276 13.3018 62.6469V22.0416C13.3018 20.6609 14.4211 19.5416 15.8018 19.5416H76.8018ZM84.3018 22.0416C84.3018 17.8995 80.9439 14.5416 76.8018 14.5416H15.8018C11.6596 14.5416 8.30176 17.8995 8.30176 22.0416V62.6469C8.30176 66.789 11.6596 70.1469 15.8018 70.1469H25.7232L35.2726 78.2126C36.5767 79.3142 38.4853 79.3142 39.7895 78.2126L49.3389 70.1469H76.8018C80.9439 70.1469 84.3018 66.789 84.3018 62.6469V22.0416Z" fill="#9D5CFF"/>
<path fill-rule="evenodd" clip-rule="evenodd" d="M21.666 41.6848C21.666 40.304 22.7853 39.1848 24.166 39.1848H68.4371C69.8178 39.1848 70.9371 40.304 70.9371 41.6848C70.9371 43.0655 69.8178 44.1848 68.4371 44.1848H24.166C22.7853 44.1848 21.666 43.0655 21.666 41.6848Z" fill="#9D5CFF"/>
<path fill-rule="evenodd" clip-rule="evenodd" d="M21.666 30.8324C21.666 29.4517 22.7853 28.3324 24.166 28.3324H68.4371C69.8178 28.3324 70.9371 29.4517 70.9371 30.8324C70.9371 32.2131 69.8178 33.3324 68.4371 33.3324H24.166C22.7853 33.3324 21.666 32.2131 21.666 30.8324Z" fill="#9D5CFF"/>
<path fill-rule="evenodd" clip-rule="evenodd" d="M21.666 52.8833C21.666 51.5026 22.7853 50.3833 24.166 50.3833H68.4371C69.8178 50.3833 70.9371 51.5026 70.9371 52.8833C70.9371 54.264 69.8178 55.3833 68.4371 55.3833H24.166C22.7853 55.3833 21.666 54.264 21.666 52.8833Z" fill="#9D5CFF"/>
<defs>
<filter id="filter0_d_1106_329" x="6.80176" y="6.04163" width="90.6357" height="78.4972" filterUnits="userSpaceOnUse" color-interpolation-filters="sRGB">
<feFlood flood-opacity="0" result="BackgroundImageFix"/>
<feColorMatrix in="SourceAlpha" type="matrix" values="0 0 0 0 0 0 0 0 0 0 0 0 0 0 0 0 0 0 127 0" result="hardAlpha"/>
<feOffset dy="4"/>
<feGaussianBlur stdDeviation="2"/>
<feComposite in2="hardAlpha" operator="out"/>
<feColorMatrix type="matrix" values="0 0 0 0 0 0 0 0 0 0 0 0 0 0 0 0 0 0 0.25 0"/>
<feBlend mode="normal" in2="BackgroundImageFix" result="effect1_dropShadow_1106_329"/>
<feBlend mode="normal" in="SourceGraphic" in2="effect1_dropShadow_1106_329" result="shape"/>
</filter>
<filter id="filter1_d_1106_329" x="0.801758" y="0.041626" width="102.636" height="90.4972" filterUnits="userSpaceOnUse" color-interpolation-filters="sRGB">
<feFlood flood-opacity="0" result="BackgroundImageFix"/>
<feColorMatrix in="SourceAlpha" type="matrix" values="0 0 0 0 0 0 0 0 0 0 0 0 0 0 0 0 0 0 127 0" result="hardAlpha"/>
<feOffset dy="4"/>
<feGaussianBlur stdDeviation="2"/>
<feComposite in2="hardAlpha" operator="out"/>
<feColorMatrix type="matrix" values="0 0 0 0 0 0 0 0 0 0 0 0 0 0 0 0 0 0 0.25 0"/>
<feBlend mode="normal" in2="BackgroundImageFix" result="effect1_dropShadow_1106_329"/>
<feBlend mode="normal" in="SourceGraphic" in2="effect1_dropShadow_1106_329" result="shape"/>
</filter>
</defs>
</svg>
