<svg width="103" height="104" viewBox="0 0 103 104" fill="none" xmlns="http://www.w3.org/2000/svg">
<g filter="url(#filter0_d_914_729)">
<path fill-rule="evenodd" clip-rule="evenodd" d="M18.7181 7.97573C23.9162 2.93758 32.0338 2.50508 37.7379 6.96236L46.7469 14.0023L49.7549 13.7389C50.7704 13.65 51.7918 13.65 52.8073 13.7389L56.2237 14.038L64.7742 7.17547C70.4757 2.59948 78.6921 2.9837 83.9417 8.07179L88.3331 12.328C96.4501 20.1953 96.667 33.1484 88.8179 41.283L87.2788 42.878V55.1473L87.2788 55.1598V67.0677C87.2788 68.4484 86.1595 69.5677 84.7788 69.5677C83.9808 69.5677 83.2701 69.1938 82.8123 68.6116L80.4744 71.4982V75.0205C80.4744 76.4012 79.3551 77.5205 77.9744 77.5205C77.2628 77.5205 76.6207 77.2233 76.1655 76.7462C75.1403 77.8868 74.0555 78.9393 72.9204 79.9037V82.1345C72.9204 83.5152 71.8011 84.6345 70.4204 84.6345C69.4443 84.6345 68.5989 84.0752 68.1872 83.2595C66.8776 84.0251 65.5262 84.6941 64.1436 85.2668V87.0593C64.1436 88.4401 63.0243 89.5593 61.6436 89.5593C60.2628 89.5593 59.1436 88.4401 59.1436 87.0593V86.889C57.3131 87.3274 55.4522 87.6103 53.5825 87.7378V89.0363C53.5825 90.417 52.4632 91.5363 51.0825 91.5363C49.7018 91.5363 48.5825 90.417 48.5825 89.0363V87.7083C46.7113 87.5586 44.8505 87.253 43.0217 86.7913V87.0593C43.0217 88.44 41.9024 89.5593 40.5217 89.5593C39.141 89.5593 38.0217 88.44 38.0217 87.0593V85.0993C36.6673 84.5177 35.3441 83.8427 34.0622 83.0744C33.6908 83.9893 32.7932 84.6346 31.7449 84.6346C30.3642 84.6346 29.2449 83.5153 29.2449 82.1346V79.5611C28.1787 78.626 27.1589 77.6116 26.1932 76.5177C25.7372 77.1265 25.0101 77.5205 24.1909 77.5205C22.8102 77.5205 21.6909 76.4012 21.6909 75.0205V71.0081L19.7499 68.6116C19.2922 69.1938 18.5815 69.5677 17.7834 69.5677C16.4027 69.5677 15.2834 68.4484 15.2834 67.0677L15.2834 58.6717V58.6698V55.1598V42.8795L13.7429 41.283C5.89381 33.1484 6.11067 20.1953 14.2277 12.328L18.7181 7.97573Z" fill="#9D5CFF"/>
<path d="M37.7379 6.96236L35.5828 9.72021L37.7379 6.96236ZM18.7181 7.97573L16.2822 5.46249L16.2822 5.46249L18.7181 7.97573ZM46.7469 14.0023L44.5918 16.7601L45.6784 17.6092L47.0521 17.4889L46.7469 14.0023ZM49.7549 13.7389L50.0602 17.2256L50.0602 17.2256L49.7549 13.7389ZM52.8073 13.7389L53.1125 10.2523L53.1125 10.2523L52.8073 13.7389ZM56.2237 14.038L55.9185 17.5247L57.3185 17.6472L58.4144 16.7676L56.2237 14.038ZM64.7742 7.17547L66.965 9.90506L66.965 9.90506L64.7742 7.17547ZM83.9417 8.07179L86.3776 5.55855L86.3776 5.55855L83.9417 8.07179ZM88.3331 12.328L85.8972 14.8413L85.8972 14.8413L88.3331 12.328ZM88.8179 41.283L86.2992 38.8527L86.2992 38.8527L88.8179 41.283ZM87.2788 42.878L84.7601 40.4477L83.7788 41.4648V42.878H87.2788ZM87.2788 55.1473L83.7788 55.1473L83.7788 55.1559L87.2788 55.1473ZM87.2788 55.1598L90.7788 55.1598L90.7788 55.1513L87.2788 55.1598ZM82.8123 68.6116L85.5638 66.4484L82.853 63.0004L80.0925 66.4087L82.8123 68.6116ZM80.4744 71.4982L77.7546 69.2953L76.9744 70.2586V71.4982H80.4744ZM76.1655 76.7462L78.6976 74.3299L76.0886 71.5959L73.5624 74.4066L76.1655 76.7462ZM72.9204 79.9037L70.6543 77.2363L69.4204 78.2846V79.9037H72.9204ZM68.1872 83.2595L71.3118 81.6824L69.6345 78.3594L66.4209 80.2379L68.1872 83.2595ZM64.1436 85.2668L62.8044 82.0331L60.6436 82.928V85.2668H64.1436ZM59.1436 86.889H62.6436V82.4517L58.3283 83.4852L59.1436 86.889ZM53.5825 87.7378L53.3445 84.2459L50.0825 84.4682V87.7378H53.5825ZM48.5825 87.7083H52.0825V84.4771L48.8616 84.2195L48.5825 87.7083ZM43.0217 86.7913L43.8784 83.3978L39.5217 82.298V86.7913H43.0217ZM38.0217 85.0993H41.5217V82.7932L39.4027 81.8833L38.0217 85.0993ZM34.0622 83.0744L35.8616 80.0723L32.3564 77.9713L30.8192 81.7579L34.0622 83.0744ZM29.2449 79.5611H32.7449V77.9752L31.5526 76.9296L29.2449 79.5611ZM26.1932 76.5177L28.8171 74.2014L25.9704 70.9766L23.3918 74.4196L26.1932 76.5177ZM21.6909 75.0205L18.1909 75.0205L18.1909 75.0205L21.6909 75.0205ZM21.6909 71.0081H25.1909V69.7685L24.4107 68.8052L21.6909 71.0081ZM19.7499 68.6116L22.4697 66.4087L19.7092 63.0004L16.9984 66.4484L19.7499 68.6116ZM15.2834 67.0677L11.7834 67.0677L11.7834 67.0677L15.2834 67.0677ZM15.2834 58.6717L11.7834 58.6717L11.7834 58.6717L15.2834 58.6717ZM15.2834 42.8795H18.7834V41.4662L17.8021 40.4492L15.2834 42.8795ZM13.7429 41.283L16.2616 38.8527L16.2616 38.8527L13.7429 41.283ZM14.2277 12.328L11.7918 9.81477L14.2277 12.328ZM39.8929 4.20451C32.8121 -1.32866 22.7351 -0.791765 16.2822 5.46249L21.154 10.489C25.0974 6.66693 31.2556 6.33882 35.5828 9.72021L39.8929 4.20451ZM48.9019 11.2444L39.8929 4.20451L35.5828 9.72021L44.5918 16.7601L48.9019 11.2444ZM49.4497 10.2523L46.4416 10.5156L47.0521 17.4889L50.0602 17.2256L49.4497 10.2523ZM53.1125 10.2523C51.8939 10.1456 50.6683 10.1456 49.4497 10.2523L50.0602 17.2256C50.8726 17.1545 51.6897 17.1545 52.5021 17.2256L53.1125 10.2523ZM56.5289 10.5513L53.1125 10.2523L52.5021 17.2256L55.9185 17.5247L56.5289 10.5513ZM62.5835 4.44588L54.033 11.3084L58.4144 16.7676L66.965 9.90506L62.5835 4.44588ZM86.3776 5.55855C79.8609 -0.757695 69.6612 -1.23465 62.5835 4.44588L66.965 9.90506C71.2903 6.43362 77.5234 6.7251 81.5058 10.585L86.3776 5.55855ZM90.769 9.81479L86.3776 5.55855L81.5058 10.585L85.8972 14.8413L90.769 9.81479ZM91.3365 43.7133C100.526 34.1899 100.272 19.0252 90.769 9.81478L85.8972 14.8413C92.6284 21.3653 92.8082 32.107 86.2992 38.8527L91.3365 43.7133ZM89.7974 45.3083L91.3365 43.7133L86.2992 38.8527L84.7601 40.4477L89.7974 45.3083ZM90.7788 55.1473V42.878H83.7788V55.1473H90.7788ZM90.7788 55.1513L90.7788 55.1388L83.7788 55.1559L83.7788 55.1684L90.7788 55.1513ZM90.7788 67.0677V55.1598H83.7788V67.0677H90.7788ZM84.7788 73.0677C88.0925 73.0677 90.7788 70.3814 90.7788 67.0677H83.7788C83.7788 66.5154 84.2265 66.0677 84.7788 66.0677V73.0677ZM80.0608 70.7747C81.1535 72.1646 82.8617 73.0677 84.7788 73.0677V66.0677C85.0998 66.0677 85.3866 66.2229 85.5638 66.4484L80.0608 70.7747ZM83.1942 73.701L85.5321 70.8144L80.0925 66.4087L77.7546 69.2953L83.1942 73.701ZM83.9744 75.0205V71.4982H76.9744V75.0205H83.9744ZM77.9744 81.0205C81.2881 81.0205 83.9744 78.3342 83.9744 75.0205H76.9744C76.9744 74.4682 77.4221 74.0205 77.9744 74.0205V81.0205ZM73.6334 79.1625C74.7217 80.3029 76.2671 81.0205 77.9744 81.0205V74.0205C78.2585 74.0205 78.5198 74.1436 78.6976 74.3299L73.6334 79.1625ZM75.1865 82.571C76.4409 81.5054 77.6382 80.3434 78.7686 79.0858L73.5624 74.4066C72.6423 75.4303 71.6701 76.3733 70.6543 77.2363L75.1865 82.571ZM76.4204 82.1345V79.9037H69.4204V82.1345H76.4204ZM70.4204 88.1345C73.7341 88.1345 76.4204 85.4482 76.4204 82.1345H69.4204C69.4204 81.5823 69.8681 81.1345 70.4204 81.1345V88.1345ZM65.0627 84.8366C66.0464 86.7856 68.0728 88.1345 70.4204 88.1345V81.1345C70.8159 81.1345 71.1514 81.3647 71.3118 81.6824L65.0627 84.8366ZM65.4827 88.5004C67.0111 87.8675 68.5053 87.1277 69.9535 86.2811L66.4209 80.2379C65.25 80.9224 64.0414 81.5208 62.8044 82.0331L65.4827 88.5004ZM67.6436 87.0593V85.2668H60.6436V87.0593H67.6436ZM61.6436 93.0593C64.9573 93.0593 67.6436 90.3731 67.6436 87.0593H60.6436C60.6436 86.5071 61.0913 86.0593 61.6436 86.0593V93.0593ZM55.6436 87.0593C55.6436 90.3731 58.3299 93.0593 61.6436 93.0593V86.0593C62.1958 86.0593 62.6436 86.5071 62.6436 87.0593H55.6436ZM55.6436 86.889V87.0593H62.6436V86.889H55.6436ZM53.8205 91.2297C55.8836 91.089 57.9376 90.7768 59.9588 90.2927L58.3283 83.4852C56.6886 83.878 55.0209 84.1316 53.3445 84.2459L53.8205 91.2297ZM50.0825 87.7378V89.0363H57.0825V87.7378H50.0825ZM50.0825 89.0363C50.0825 88.484 50.5302 88.0363 51.0825 88.0363V95.0363C54.3962 95.0363 57.0825 92.35 57.0825 89.0363H50.0825ZM51.0825 88.0363C51.6348 88.0363 52.0825 88.484 52.0825 89.0363H45.0825C45.0825 92.35 47.7688 95.0363 51.0825 95.0363V88.0363ZM52.0825 89.0363V87.7083H45.0825V89.0363H52.0825ZM42.1651 90.1849C44.1846 90.6947 46.2386 91.032 48.3034 91.1972L48.8616 84.2195C47.184 84.0853 45.5164 83.8113 43.8784 83.3978L42.1651 90.1849ZM46.5217 87.0593V86.7913H39.5217V87.0593H46.5217ZM40.5217 93.0593C43.8354 93.0593 46.5217 90.373 46.5217 87.0593H39.5217C39.5217 86.507 39.9694 86.0593 40.5217 86.0593V93.0593ZM34.5217 87.0593C34.5217 90.373 37.208 93.0593 40.5217 93.0593V86.0593C41.074 86.0593 41.5217 86.507 41.5217 87.0593H34.5217ZM34.5217 85.0993V87.0593H41.5217V85.0993H34.5217ZM32.2628 86.0764C33.6804 86.9261 35.1435 87.6724 36.6407 88.3154L39.4027 81.8833C38.1911 81.363 37.0078 80.7594 35.8616 80.0723L32.2628 86.0764ZM31.7449 88.1346C34.2663 88.1346 36.4164 86.5803 37.3052 84.3909L30.8192 81.7579C30.9652 81.3983 31.32 81.1346 31.7449 81.1346V88.1346ZM25.7449 82.1346C25.7449 85.4483 28.4312 88.1346 31.7449 88.1346V81.1346C32.2972 81.1346 32.7449 81.5823 32.7449 82.1346H25.7449ZM25.7449 79.5611V82.1346H32.7449V79.5611H25.7449ZM23.5693 78.834C24.6337 80.0397 25.7592 81.1594 26.9371 82.1925L31.5526 76.9296C30.5982 76.0926 29.684 75.1834 28.8171 74.2014L23.5693 78.834ZM24.1909 81.0205C26.1592 81.0205 27.9063 80.0691 28.9947 78.6158L23.3918 74.4196C23.5682 74.184 23.861 74.0205 24.1909 74.0205V81.0205ZM18.1909 75.0205C18.1909 78.3342 20.8772 81.0205 24.1909 81.0205V74.0205C24.7432 74.0205 25.1909 74.4682 25.1909 75.0205L18.1909 75.0205ZM18.1909 71.0081V75.0205H25.1909V71.0081H18.1909ZM17.0301 70.8144L18.9711 73.2109L24.4107 68.8052L22.4697 66.4087L17.0301 70.8144ZM17.7834 73.0677C19.7005 73.0677 21.4087 72.1647 22.5014 70.7747L16.9984 66.4484C17.1757 66.2229 17.4624 66.0677 17.7834 66.0677V73.0677ZM11.7834 67.0677C11.7834 70.3814 14.4697 73.0677 17.7834 73.0677V66.0677C18.3357 66.0677 18.7834 66.5154 18.7834 67.0677L11.7834 67.0677ZM11.7834 58.6717L11.7834 67.0677L18.7834 67.0677L18.7834 58.6717L11.7834 58.6717ZM11.7834 58.6698V58.6717H18.7834V58.6698H11.7834ZM11.7834 55.1598V58.6698H18.7834V55.1598H11.7834ZM11.7834 42.8795V55.1598H18.7834V42.8795H11.7834ZM11.2243 43.7133L12.7648 45.3098L17.8021 40.4492L16.2616 38.8527L11.2243 43.7133ZM11.7918 9.81477C2.28893 19.0252 2.03504 34.1899 11.2243 43.7133L16.2616 38.8527C9.75257 32.1069 9.93241 21.3653 16.6636 14.8412L11.7918 9.81477ZM16.2822 5.46249L11.7918 9.81477L16.6636 14.8412L21.154 10.489L16.2822 5.46249Z" fill="white"/>
</g>
<path d="M17.7834 58.6698V41.9544C17.7834 28.9923 27.6905 18.1801 40.6032 17.0497L49.9729 16.2294C50.8434 16.1532 51.7188 16.1532 52.5893 16.2294L61.9591 17.0497C74.8718 18.1801 84.7788 28.9923 84.7788 41.9544V58.6698C84.7788 60.9612 83.9919 63.1831 82.5497 64.9638L75.3709 73.8272C62.9639 89.1457 39.5983 89.1457 27.1914 73.8272L20.0126 64.9638C18.5704 63.1831 17.7834 60.9612 17.7834 58.6698Z" fill="white"/>
<path fill-rule="evenodd" clip-rule="evenodd" d="M49.7549 13.7389C50.7704 13.65 51.7918 13.65 52.8073 13.7389L62.1771 14.5592C76.3811 15.8027 87.2788 27.6961 87.2788 41.9544V58.6698C87.2788 61.5341 86.2951 64.3115 84.4924 66.5372L77.3136 75.4007C63.9061 91.9545 38.6562 91.9546 25.2486 75.4007L18.0698 66.5372C16.2671 64.3115 15.2834 61.5341 15.2834 58.6698V41.9544C15.2834 27.6961 26.1812 15.8027 40.3851 14.5592L49.7549 13.7389ZM52.3713 18.7199C51.6459 18.6564 50.9163 18.6564 50.191 18.7199L40.8212 19.5401C29.1998 20.5575 20.2834 30.2885 20.2834 41.9544V58.6698C20.2834 60.3884 20.8736 62.0548 21.9553 63.3903L29.1341 72.2537C40.5405 86.3369 62.0217 86.3369 73.4282 72.2537L80.6069 63.3903C81.6886 62.0548 82.2788 60.3884 82.2788 58.6698V41.9544C82.2788 30.2885 73.3625 20.5575 61.741 19.5401L52.3713 18.7199Z" fill="#9D5CFF"/>
<path d="M37.5879 48.6598C37.5879 52.2497 34.6777 55.1598 31.0879 55.1598C27.498 55.1598 24.5879 52.2497 24.5879 48.6598C24.5879 45.07 27.498 42.1598 31.0879 42.1598C34.6777 42.1598 37.5879 45.07 37.5879 48.6598Z" fill="#9D5CFF"/>
<path d="M77.9744 48.6598C77.9744 52.2497 75.0642 55.1598 71.4744 55.1598C67.8845 55.1598 64.9744 52.2497 64.9744 48.6598C64.9744 45.07 67.8845 42.1598 71.4744 42.1598C75.0642 42.1598 77.9744 45.07 77.9744 48.6598Z" fill="#9D5CFF"/>
<path fill-rule="evenodd" clip-rule="evenodd" d="M61.8476 58.8691C58.7997 59.9914 55.389 58.7201 53.8194 55.8766L53.4465 55.2011C52.5059 53.497 50.0566 53.497 49.116 55.2011L48.9244 55.5482C47.2576 58.5679 43.6784 59.9747 40.4015 58.8982C39.0898 58.4673 38.3758 57.0546 38.8067 55.7428C39.2376 54.4311 40.6503 53.7171 41.9621 54.148C42.9559 54.4745 44.0414 54.0478 44.5469 53.132L44.7386 52.7848C47.5808 47.6358 54.9817 47.6358 57.8239 52.7848L58.1968 53.4603C58.5728 54.1414 59.3897 54.4459 60.1198 54.1771C61.4155 53.7 62.8526 54.3636 63.3297 55.6592C63.8068 56.9549 63.1432 58.392 61.8476 58.8691Z" fill="#9D5CFF"/>
<path d="M47.5818 44.392C47.5818 43.0795 48.6458 42.0155 49.9583 42.0155H52.8805C54.1929 42.0155 55.2569 43.0795 55.2569 44.392V44.392C55.2569 45.7045 54.1929 46.7684 52.8805 46.7684H49.9583C48.6458 46.7684 47.5818 45.7045 47.5818 44.392V44.392Z" fill="#9D5CFF"/>
<path fill-rule="evenodd" clip-rule="evenodd" d="M21.3096 15.6906L31.7397 6.07172L35.1294 9.74729L24.6993 19.3662C23.6843 20.3023 22.1027 20.2383 21.1666 19.2233C20.2306 18.2083 20.2946 16.6267 21.3096 15.6906Z" fill="#9D5CFF"/>
<path fill-rule="evenodd" clip-rule="evenodd" d="M31.6668 16.4558L38.3885 9.73434L41.924 13.2699L35.2023 19.9914C34.226 20.9677 32.6431 20.9677 31.6668 19.9914C30.6905 19.015 30.6905 17.4321 31.6668 16.4558Z" fill="#9D5CFF"/>
<path fill-rule="evenodd" clip-rule="evenodd" d="M81.7451 15.6906L71.315 6.07172L67.9253 9.74729L78.3554 19.3662C79.3704 20.3023 80.952 20.2383 81.8881 19.2233C82.8241 18.2083 82.7601 16.6267 81.7451 15.6906Z" fill="#9D5CFF"/>
<path fill-rule="evenodd" clip-rule="evenodd" d="M71.3879 16.4558L64.6662 9.73434L61.1307 13.2699L67.8524 19.9914C68.8287 20.9677 70.4116 20.9677 71.3879 19.9914C72.3642 19.015 72.3642 17.4321 71.3879 16.4558Z" fill="#9D5CFF"/>
<path fill-rule="evenodd" clip-rule="evenodd" d="M24.1909 65.8692C25.5716 65.8692 26.6909 66.9885 26.6909 68.3692L26.6909 75.0205C26.6909 76.4012 25.5716 77.5205 24.1909 77.5205C22.8102 77.5205 21.6909 76.4012 21.6909 75.0205L21.6909 68.3692C21.6909 66.9885 22.8102 65.8692 24.1909 65.8692Z" fill="#9D5CFF"/>
<path fill-rule="evenodd" clip-rule="evenodd" d="M17.7834 52.6598C19.1642 52.6598 20.2834 53.7791 20.2834 55.1598L20.2834 67.0677C20.2834 68.4484 19.1642 69.5677 17.7834 69.5677C16.4027 69.5677 15.2834 68.4484 15.2834 67.0677L15.2834 55.1598C15.2834 53.7791 16.4027 52.6598 17.7834 52.6598Z" fill="#9D5CFF"/>
<path fill-rule="evenodd" clip-rule="evenodd" d="M84.7788 52.6598C86.1595 52.6598 87.2788 53.7791 87.2788 55.1598L87.2788 67.0677C87.2788 68.4484 86.1595 69.5677 84.7788 69.5677C83.3981 69.5677 82.2788 68.4484 82.2788 67.0677L82.2788 55.1598C82.2788 53.7791 83.3981 52.6598 84.7788 52.6598Z" fill="#9D5CFF"/>
<path fill-rule="evenodd" clip-rule="evenodd" d="M31.7449 69.1949C33.1256 69.1949 34.2449 70.3141 34.2449 71.6949L34.2449 82.1346C34.2449 83.5153 33.1256 84.6346 31.7449 84.6346C30.3642 84.6346 29.2449 83.5153 29.2449 82.1346L29.2449 71.6949C29.2449 70.3141 30.3642 69.1949 31.7449 69.1949Z" fill="#9D5CFF"/>
<path fill-rule="evenodd" clip-rule="evenodd" d="M40.5217 72.084C41.9024 72.084 43.0217 73.2033 43.0217 74.584L43.0217 87.0593C43.0217 88.44 41.9024 89.5593 40.5217 89.5593C39.141 89.5593 38.0217 88.44 38.0217 87.0593L38.0217 74.584C38.0217 73.2033 39.141 72.084 40.5217 72.084Z" fill="#9D5CFF"/>
<path fill-rule="evenodd" clip-rule="evenodd" d="M77.9744 64.5677C79.3551 64.5677 80.4744 65.687 80.4744 67.0677L80.4744 75.0205C80.4744 76.4012 79.3551 77.5205 77.9744 77.5205C76.5937 77.5205 75.4744 76.4012 75.4744 75.0205L75.4744 67.0677C75.4744 65.687 76.5937 64.5677 77.9744 64.5677Z" fill="#9D5CFF"/>
<path fill-rule="evenodd" clip-rule="evenodd" d="M70.4204 72.084C71.8011 72.084 72.9204 73.2033 72.9204 74.584L72.9204 82.1345C72.9204 83.5152 71.8011 84.6345 70.4204 84.6345C69.0397 84.6345 67.9204 83.5152 67.9204 82.1345L67.9204 74.584C67.9204 73.2033 69.0397 72.084 70.4204 72.084Z" fill="#9D5CFF"/>
<path fill-rule="evenodd" clip-rule="evenodd" d="M61.6436 75.8593C63.0243 75.8593 64.1436 76.9786 64.1436 78.3593L64.1436 87.0593C64.1436 88.4401 63.0243 89.5593 61.6436 89.5593C60.2628 89.5593 59.1436 88.4401 59.1436 87.0593L59.1436 78.3593C59.1436 76.9786 60.2628 75.8593 61.6436 75.8593Z" fill="#9D5CFF"/>
<path fill-rule="evenodd" clip-rule="evenodd" d="M51.0825 72.7328C52.4632 72.7328 53.5825 73.8521 53.5825 75.2328L53.5825 89.0363C53.5825 90.417 52.4632 91.5363 51.0825 91.5363C49.7018 91.5363 48.5825 90.417 48.5825 89.0363L48.5825 75.2328C48.5825 73.8521 49.7018 72.7328 51.0825 72.7328Z" fill="#9D5CFF"/>
<path d="M29.2385 67.3545L27.5725 66.5034C26.0681 65.7348 24.8129 64.5548 23.953 63.1007C21.1073 58.2885 19.606 52.8005 19.606 47.2098L19.6061 41.731L18.4768 63.0271L25.2695 71.5596L33.0729 79.2483L41.4503 83.2648L51.5489 84.9862L60.2704 83.2648L68.3034 79.9369L78.861 70.1825L84.2739 60.6012L83.1319 41.731V49.3108C83.1319 53.5068 81.8729 57.6063 79.5178 61.0789C79.0841 61.7185 78.5307 62.2681 77.8881 62.6974L72.6715 66.1831C68.2426 69.1424 62.5383 69.4028 57.8584 66.8591C53.6337 64.563 48.5393 64.5373 44.2916 66.7907L43.4356 67.2449C39.0046 69.5956 33.7053 69.6366 29.2385 67.3545Z" fill="#9D5CFF"/>
<path d="M33.8532 7.13464L53.362 26.3723L39.5434 29.4883L23.8281 46.2508L9.19653 30.7076V22.308L23.8281 7.13464H33.8532Z" fill="white"/>
<path d="M68.2896 7.13464L48.7808 26.3723L62.5995 29.4883L79.2631 46.8293L92.9463 30.7076V22.308L78.3148 7.13464H68.2896Z" fill="white"/>
<path fill-rule="evenodd" clip-rule="evenodd" d="M83.9417 8.07175C78.6921 2.98367 70.4757 2.59945 64.7742 7.17544L55.3774 14.7172C54.3006 15.5814 54.1283 17.155 54.9925 18.2317C55.8567 19.3085 57.4302 19.4809 58.507 18.6166L67.9038 11.0749C71.6393 8.0768 77.0225 8.32852 80.4619 11.6621L84.8532 15.9183C90.9905 21.8668 91.1545 31.6606 85.2198 37.8111L81.146 42.033C79.7264 43.5043 77.3531 43.4506 76.0014 41.9166L65.2594 29.7263C64.3743 28.7218 63.8859 27.4289 63.8859 26.0901V24.4239C63.8859 23.0432 62.7667 21.9239 61.3859 21.9239C60.0052 21.9239 58.8859 23.0432 58.8859 24.4239V26.0901C58.8859 28.6461 59.8183 31.1143 61.5081 33.032L72.2501 45.2223C75.5328 48.9477 81.2963 49.078 84.7441 45.5048L88.8179 41.283C96.667 33.1484 96.4501 20.1953 88.3331 12.328L83.9417 8.07175Z" fill="#9D5CFF"/>
<path fill-rule="evenodd" clip-rule="evenodd" d="M18.7181 7.97573C23.9162 2.93758 32.0338 2.50508 37.7379 6.96236L47.5404 14.6224C48.6284 15.4725 48.8211 17.0437 47.971 18.1316C47.1208 19.2195 45.5497 19.4123 44.4618 18.5622L34.6592 10.9021C30.9221 7.98185 25.6037 8.26522 22.198 11.5661L17.7076 15.9183C11.5703 21.8668 11.4063 31.6606 17.341 37.8111L21.4148 42.033C22.8344 43.5043 25.2077 43.4506 26.5594 41.9167L37.3013 29.7263C38.1865 28.7218 38.6749 27.429 38.6749 26.0901V24.4239C38.6749 23.0432 39.7941 21.9239 41.1749 21.9239C42.5556 21.9239 43.6749 23.0432 43.6749 24.4239V26.0901C43.6749 28.6461 42.7425 31.1143 41.0527 33.032L30.3107 45.2223C27.028 48.9477 21.2645 49.078 17.8167 45.5048L13.7429 41.283C5.89381 33.1484 6.11067 20.1953 14.2277 12.328L18.7181 7.97573Z" fill="#9D5CFF"/>
<mask id="mask0_914_729" style="mask-type:alpha" maskUnits="userSpaceOnUse" x="0" y="20" width="49" height="38">
<path d="M0.796387 24.6699L10.5299 20.5654L15.9245 28.1881L48.1743 24.6699V57.7325H0.796387V24.6699Z" fill="#D9D9D9"/>
</mask>
<g mask="url(#mask0_914_729)">
<g filter="url(#filter1_d_914_729)">
<path d="M27.9632 2.4968L15.9677 14.1231C8.84057 21.031 8.65015 32.4045 15.5421 39.547L19.6158 43.7689C22.0495 46.2911 26.1179 46.1991 28.4351 43.5694L39.1771 31.3791C40.4646 29.918 41.1749 28.0375 41.1749 26.0901V24.4238" stroke="#9D5CFF" stroke-width="5" stroke-linecap="round"/>
</g>
</g>
<path d="M17.8219 30.1542L11.5205 20.1276V33.9858L23.207 45.4192L32.9773 39.4947L37.031 33.9858L38.1743 31.4913L24.7125 33.3627C21.9844 33.742 19.2875 32.4862 17.8219 30.1542Z" fill="#9D5CFF"/>
<mask id="mask1_914_729" style="mask-type:alpha" maskUnits="userSpaceOnUse" x="54" y="20" width="48" height="38">
<path d="M101.777 24.8526L92.0433 20.7481L86.6488 28.3708L54.3989 24.8526V57.9152H101.777V24.8526Z" fill="#D9D9D9"/>
</mask>
<g mask="url(#mask1_914_729)">
<g filter="url(#filter2_d_914_729)">
<path d="M74.6101 2.67953L86.6055 14.3059C93.7327 21.2137 93.9231 32.5872 87.0312 39.7297L82.9575 43.9516C80.5237 46.4739 76.4553 46.3819 74.1381 43.7522L63.3961 31.5619C62.1086 30.1008 61.3983 28.2202 61.3983 26.2728V24.6066" stroke="#9D5CFF" stroke-width="5" stroke-linecap="round"/>
</g>
</g>
<path d="M84.7513 30.3369L91.0527 20.3103V34.1686L79.3663 45.602L69.5959 39.6774L65.5423 34.1686L64.3989 31.674L77.8608 33.5454C80.5888 33.9247 83.2857 32.6689 84.7513 30.3369Z" fill="#9D5CFF"/>
<defs>
<filter id="filter0_d_914_729" x="0.495117" y="0.387604" width="101.571" height="102.649" filterUnits="userSpaceOnUse" color-interpolation-filters="sRGB">
<feFlood flood-opacity="0" result="BackgroundImageFix"/>
<feColorMatrix in="SourceAlpha" type="matrix" values="0 0 0 0 0 0 0 0 0 0 0 0 0 0 0 0 0 0 127 0" result="hardAlpha"/>
<feOffset dy="4"/>
<feGaussianBlur stdDeviation="2"/>
<feComposite in2="hardAlpha" operator="out"/>
<feColorMatrix type="matrix" values="0 0 0 0 0 0 0 0 0 0 0 0 0 0 0 0 0 0 0.25 0"/>
<feBlend mode="normal" in2="BackgroundImageFix" result="effect1_dropShadow_914_729"/>
<feBlend mode="normal" in="SourceGraphic" in2="effect1_dropShadow_914_729" result="shape"/>
</filter>
<filter id="filter1_d_914_729" x="3.99512" y="-0.00320435" width="43.6799" height="56.1059" filterUnits="userSpaceOnUse" color-interpolation-filters="sRGB">
<feFlood flood-opacity="0" result="BackgroundImageFix"/>
<feColorMatrix in="SourceAlpha" type="matrix" values="0 0 0 0 0 0 0 0 0 0 0 0 0 0 0 0 0 0 127 0" result="hardAlpha"/>
<feOffset dy="4"/>
<feGaussianBlur stdDeviation="2"/>
<feComposite in2="hardAlpha" operator="out"/>
<feColorMatrix type="matrix" values="0 0 0 0 0 0 0 0 0 0 0 0 0 0 0 0 0 0 0.25 0"/>
<feBlend mode="normal" in2="BackgroundImageFix" result="effect1_dropShadow_914_729"/>
<feBlend mode="normal" in="SourceGraphic" in2="effect1_dropShadow_914_729" result="shape"/>
</filter>
<filter id="filter2_d_914_729" x="54.8982" y="0.179535" width="43.6799" height="56.1059" filterUnits="userSpaceOnUse" color-interpolation-filters="sRGB">
<feFlood flood-opacity="0" result="BackgroundImageFix"/>
<feColorMatrix in="SourceAlpha" type="matrix" values="0 0 0 0 0 0 0 0 0 0 0 0 0 0 0 0 0 0 127 0" result="hardAlpha"/>
<feOffset dy="4"/>
<feGaussianBlur stdDeviation="2"/>
<feComposite in2="hardAlpha" operator="out"/>
<feColorMatrix type="matrix" values="0 0 0 0 0 0 0 0 0 0 0 0 0 0 0 0 0 0 0.25 0"/>
<feBlend mode="normal" in2="BackgroundImageFix" result="effect1_dropShadow_914_729"/>
<feBlend mode="normal" in="SourceGraphic" in2="effect1_dropShadow_914_729" result="shape"/>
</filter>
</defs>
</svg>
