<svg width="112" height="106" viewBox="0 0 112 106" fill="none" xmlns="http://www.w3.org/2000/svg">
<g filter="url(#filter0_d_914_683)">
<path fill-rule="evenodd" clip-rule="evenodd" d="M26.258 5.40415C26.6596 4.75539 27.3354 4.32551 28.0932 4.23682C28.851 4.14812 29.6078 4.41032 30.1483 4.94881L44.9693 19.7148H66.8203L81.6414 4.94881C82.1819 4.41032 82.9387 4.14812 83.6965 4.23682C84.4543 4.32551 85.1301 4.75539 85.5316 5.40415L93.6408 18.5058C96.6623 23.3876 95.9699 29.6999 91.9619 33.8106L91.1316 34.6622C91.6274 36.4281 91.8925 38.2905 91.8925 40.2148V53.3268H101.116C102.496 53.3268 103.616 54.4461 103.616 55.8268C103.616 57.2076 102.496 58.3268 101.116 58.3268H91.8925V63.5471L101.576 66.1418C102.909 66.4991 103.701 67.8699 103.343 69.2036C102.986 70.5373 101.615 71.3287 100.282 70.9714L91.6925 68.6699C90.7505 75.1979 86.5433 80.8869 80.4166 83.6531L61.0385 92.4021C57.7683 93.8785 54.0213 93.8785 50.7512 92.4021L31.373 83.6531C25.2463 80.8869 21.0391 75.1979 20.0971 68.67L11.5081 70.9714C10.1744 71.3287 8.80355 70.5373 8.4462 69.2036C8.08885 67.8699 8.8803 66.4991 10.214 66.1418L19.8972 63.5471V58.3268H10.6743C9.2936 58.3268 8.17432 57.2076 8.17432 55.8268C8.17432 54.4461 9.2936 53.3268 10.6743 53.3268H19.8972V40.2148C19.8972 38.2905 20.1623 36.4281 20.658 34.6622L19.8277 33.8106C15.8198 29.6999 15.1274 23.3876 18.1489 18.5058L26.258 5.40415Z" fill="#9D5CFF"/>
<path d="M28.0932 4.23682L27.6863 0.760548L28.0932 4.23682ZM26.258 5.40415L23.282 3.56213L23.282 3.56214L26.258 5.40415ZM30.1483 4.94881L27.678 7.42829L27.678 7.42829L30.1483 4.94881ZM44.9693 19.7148L42.4991 22.1943L43.5234 23.2148H44.9693V19.7148ZM66.8203 19.7148V23.2148H68.2663L69.2906 22.1943L66.8203 19.7148ZM81.6414 4.94881L84.1117 7.42829L84.1117 7.42828L81.6414 4.94881ZM83.6965 4.23682L84.1034 0.760548L83.6965 4.23682ZM85.5316 5.40415L82.5556 7.24614L82.5556 7.24615L85.5316 5.40415ZM93.6408 18.5058L90.6647 20.3478L90.6647 20.3478L93.6408 18.5058ZM91.9619 33.8106L94.4679 36.254L94.4679 36.254L91.9619 33.8106ZM91.1316 34.6622L88.6256 32.2189L87.2162 33.6644L87.7619 35.6082L91.1316 34.6622ZM91.8925 53.3268H88.3925V56.8268H91.8925V53.3268ZM91.8925 58.3268V54.8268H88.3925V58.3268H91.8925ZM91.8925 63.5471H88.3925V66.2328L90.9866 66.9279L91.8925 63.5471ZM101.576 66.1418L100.67 69.5225L100.67 69.5225L101.576 66.1418ZM103.343 69.2036L99.9627 68.2977L99.9627 68.2977L103.343 69.2036ZM100.282 70.9714L99.3757 74.3521L99.3757 74.3521L100.282 70.9714ZM91.6925 68.6699L92.5984 65.2892L88.7913 64.2691L88.2284 68.1701L91.6925 68.6699ZM80.4166 83.6531L81.8568 86.843L81.8568 86.843L80.4166 83.6531ZM61.0385 92.4021L59.5983 89.2121L59.5983 89.2121L61.0385 92.4021ZM50.7512 92.4021L49.3109 95.592L49.3109 95.592L50.7512 92.4021ZM31.373 83.6531L32.8133 80.4631L32.8133 80.4631L31.373 83.6531ZM20.0971 68.67L23.5612 68.1701L22.9983 64.2691L19.1912 65.2892L20.0971 68.67ZM11.5081 70.9714L12.4139 74.3521L12.4139 74.3521L11.5081 70.9714ZM8.4462 69.2036L11.8269 68.2977L8.4462 69.2036ZM10.214 66.1418L11.1198 69.5225L11.1198 69.5225L10.214 66.1418ZM19.8972 63.5471L20.803 66.9279L23.3972 66.2328V63.5471H19.8972ZM19.8972 58.3268H23.3972V54.8268H19.8972V58.3268ZM19.8972 53.3268V56.8268H23.3972V53.3268H19.8972ZM20.658 34.6622L24.0278 35.6082L24.5734 33.6644L23.164 32.2189L20.658 34.6622ZM19.8277 33.8106L22.3337 31.3673L22.3337 31.3673L19.8277 33.8106ZM18.1489 18.5058L15.1728 16.6638L15.1728 16.6638L18.1489 18.5058ZM27.6863 0.760548C25.8676 0.973418 24.2457 2.00513 23.282 3.56213L29.2341 7.24616C29.0735 7.50566 28.8032 7.67761 28.5001 7.71309L27.6863 0.760548ZM32.6185 2.46934C31.3213 1.17695 29.505 0.547678 27.6863 0.760548L28.5001 7.71309C28.1969 7.74856 27.8942 7.64369 27.678 7.42829L32.6185 2.46934ZM47.4396 17.2353L32.6185 2.46933L27.678 7.42829L42.4991 22.1943L47.4396 17.2353ZM66.8203 16.2148H44.9693V23.2148H66.8203V16.2148ZM79.1711 2.46933L64.3501 17.2353L69.2906 22.1943L84.1117 7.42829L79.1711 2.46933ZM84.1034 0.760548C82.2847 0.547678 80.4683 1.17695 79.1711 2.46934L84.1117 7.42828C83.8955 7.64369 83.5927 7.74856 83.2896 7.71309L84.1034 0.760548ZM88.5077 3.56215C87.544 2.00512 85.9221 0.973417 84.1034 0.760548L83.2896 7.71309C82.9865 7.67761 82.7162 7.50566 82.5556 7.24614L88.5077 3.56215ZM96.6168 16.6638L88.5077 3.56214L82.5556 7.24615L90.6647 20.3478L96.6168 16.6638ZM94.4679 36.254C99.5981 30.9923 100.484 22.9125 96.6168 16.6638L90.6647 20.3478C92.8402 23.8627 92.3417 28.4076 89.4559 31.3673L94.4679 36.254ZM93.6376 37.1056L94.4679 36.254L89.4559 31.3673L88.6256 32.2189L93.6376 37.1056ZM95.3925 40.2148C95.3925 37.9676 95.0827 35.7871 94.5014 33.7163L87.7619 35.6082C88.172 37.0692 88.3925 38.6134 88.3925 40.2148H95.3925ZM95.3925 53.3268V40.2148H88.3925V53.3268H95.3925ZM101.116 49.8268H91.8925V56.8268H101.116V49.8268ZM107.116 55.8268C107.116 52.5131 104.429 49.8268 101.116 49.8268V56.8268C100.563 56.8268 100.116 56.3791 100.116 55.8268H107.116ZM101.116 61.8268C104.429 61.8268 107.116 59.1406 107.116 55.8268H100.116C100.116 55.2746 100.563 54.8268 101.116 54.8268V61.8268ZM91.8925 61.8268H101.116V54.8268H91.8925V61.8268ZM95.3925 63.5471V58.3268H88.3925V63.5471H95.3925ZM102.482 62.761L92.7984 60.1664L90.9866 66.9279L100.67 69.5225L102.482 62.761ZM106.724 70.1095C107.582 66.9087 105.682 63.6187 102.482 62.761L100.67 69.5225C100.136 69.3796 99.8198 68.8312 99.9627 68.2977L106.724 70.1095ZM99.3757 74.3521C102.577 75.2098 105.867 73.3103 106.724 70.1095L99.9627 68.2977C100.106 67.7643 100.654 67.4477 101.187 67.5906L99.3757 74.3521ZM90.7867 72.0507L99.3757 74.3521L101.187 67.5906L92.5984 65.2892L90.7867 72.0507ZM81.8568 86.843C89.0839 83.5801 94.0455 76.8699 95.1566 69.1698L88.2284 68.1701C87.4555 73.5259 84.0028 78.1938 78.9764 80.4631L81.8568 86.843ZM62.4787 95.592L81.8568 86.843L78.9764 80.4631L59.5983 89.2121L62.4787 95.592ZM49.3109 95.592C53.4968 97.4819 58.2929 97.4819 62.4787 95.592L59.5983 89.2121C57.2437 90.2752 54.5459 90.2752 52.1914 89.2121L49.3109 95.592ZM29.9328 86.843L49.3109 95.592L52.1914 89.2121L32.8133 80.4631L29.9328 86.843ZM16.633 69.1698C17.7442 76.8699 22.7058 83.5801 29.9328 86.843L32.8133 80.4631C27.7869 78.1937 24.3341 73.5259 23.5612 68.1701L16.633 69.1698ZM12.4139 74.3521L21.003 72.0507L19.1912 65.2892L10.6022 67.5906L12.4139 74.3521ZM5.06546 70.1095C5.92311 73.3103 9.21313 75.2098 12.4139 74.3521L10.6022 67.5906C11.1357 67.4477 11.684 67.7643 11.8269 68.2977L5.06546 70.1095ZM9.3081 62.761C6.10731 63.6187 4.20781 66.9087 5.06546 70.1095L11.8269 68.2977C11.9699 68.8312 11.6533 69.3796 11.1198 69.5225L9.3081 62.761ZM18.9913 60.1664L9.3081 62.761L11.1198 69.5225L20.803 66.9279L18.9913 60.1664ZM16.3972 58.3268V63.5471H23.3972V58.3268H16.3972ZM10.6743 61.8268H19.8972V54.8268H10.6743V61.8268ZM4.67432 55.8268C4.67432 59.1405 7.36061 61.8268 10.6743 61.8268V54.8268C11.2266 54.8268 11.6743 55.2746 11.6743 55.8268H4.67432ZM10.6743 49.8268C7.36061 49.8268 4.67432 52.5131 4.67432 55.8268H11.6743C11.6743 56.3791 11.2266 56.8268 10.6743 56.8268V49.8268ZM19.8972 49.8268H10.6743V56.8268H19.8972V49.8268ZM16.3972 40.2148V53.3268H23.3972V40.2148H16.3972ZM17.2883 33.7163C16.7069 35.7871 16.3972 37.9676 16.3972 40.2148H23.3972C23.3972 38.6134 23.6176 37.0692 24.0278 35.6082L17.2883 33.7163ZM17.3217 36.254L18.152 37.1056L23.164 32.2189L22.3337 31.3673L17.3217 36.254ZM15.1728 16.6638C11.3053 22.9125 12.1916 30.9923 17.3217 36.254L22.3337 31.3673C19.448 28.4076 18.9495 23.8627 21.125 20.3478L15.1728 16.6638ZM23.282 3.56214L15.1728 16.6638L21.125 20.3478L29.2341 7.24615L23.282 3.56214Z" fill="white"/>
</g>
<path d="M22.397 65.8805V40.2148C22.397 30.2737 30.4558 22.2148 40.397 22.2148H71.3923C81.3334 22.2148 89.3923 30.2737 89.3923 40.2148V65.8805C89.3923 72.5626 85.4778 78.6249 79.3877 81.3746L60.0096 90.1236C57.3934 91.3047 54.3959 91.3047 51.7797 90.1236L32.4016 81.3745C26.3115 78.6249 22.397 72.5626 22.397 65.8805Z" fill="white"/>
<path fill-rule="evenodd" clip-rule="evenodd" d="M40.397 24.7148C31.8366 24.7148 24.897 31.6544 24.897 40.2148V65.8805C24.897 71.5799 28.2358 76.7508 33.4303 79.096L52.8084 87.845C54.7705 88.7309 57.0187 88.7309 58.9808 87.845L78.3589 79.096C83.5535 76.7508 86.8923 71.5799 86.8923 65.8805V40.2148C86.8923 31.6544 79.9527 24.7148 71.3923 24.7148H40.397ZM19.897 40.2148C19.897 28.893 29.0751 19.7148 40.397 19.7148H71.3923C82.7141 19.7148 91.8923 28.893 91.8923 40.2148V65.8805C91.8923 73.5452 87.4021 80.4991 80.4164 83.6531L61.0383 92.4021C57.7681 93.8785 54.0212 93.8785 50.751 92.4021L31.3729 83.6531C24.3871 80.4991 19.897 73.5453 19.897 65.8805V40.2148Z" fill="#9D5CFF"/>
<path fill-rule="evenodd" clip-rule="evenodd" d="M57.3829 71.206C58.4171 72.1208 58.5138 73.7007 57.599 74.7349C54.3101 78.4528 48.5579 78.6009 45.0821 75.057L44.8585 74.829C43.8917 73.8433 43.907 72.2604 44.8928 71.2936C45.8785 70.3268 47.4614 70.3422 48.4281 71.3279L48.6517 71.5559C50.0963 73.0288 52.4871 72.9673 53.854 71.422C54.7688 70.3879 56.3488 70.2911 57.3829 71.206Z" fill="#9D5CFF"/>
<path fill-rule="evenodd" clip-rule="evenodd" d="M66.8028 71.206C67.837 72.1208 67.9337 73.7007 67.0189 74.7349C63.73 78.4528 57.9778 78.6009 54.502 75.057L54.2784 74.829C53.3116 73.8433 53.327 72.2604 54.3127 71.2936C55.2984 70.3268 56.8813 70.3422 57.8481 71.3279L58.0717 71.5559C59.5163 73.0288 61.907 72.9673 63.2739 71.422C64.1887 70.3879 65.7687 70.2911 66.8028 71.206Z" fill="#9D5CFF"/>
<path fill-rule="evenodd" clip-rule="evenodd" d="M24.5221 67.4843L11.5081 70.9714C10.1745 71.3287 8.80362 70.5373 8.44626 69.2036C8.08891 67.87 8.88037 66.4991 10.214 66.1418L23.228 62.6547L24.5221 67.4843Z" fill="#9D5CFF"/>
<path fill-rule="evenodd" clip-rule="evenodd" d="M87.2677 67.4843L100.282 70.9714C101.615 71.3287 102.986 70.5373 103.344 69.2036C103.701 67.8699 102.909 66.4991 101.576 66.1418L88.5618 62.6547L87.2677 67.4843Z" fill="#9D5CFF"/>
<path fill-rule="evenodd" clip-rule="evenodd" d="M24.1472 58.3268L10.6741 58.3268C9.29342 58.3268 8.17414 57.2075 8.17414 55.8268C8.17414 54.4461 9.29342 53.3268 10.6741 53.3268L24.1472 53.3268L24.1472 58.3268Z" fill="#9D5CFF"/>
<path fill-rule="evenodd" clip-rule="evenodd" d="M87.6423 58.3268L101.115 58.3268C102.496 58.3268 103.615 57.2075 103.615 55.8268C103.615 54.4461 102.496 53.3268 101.115 53.3268L87.6423 53.3268L87.6423 58.3268Z" fill="#9D5CFF"/>
<path d="M50.6697 60.6L23.1389 66.5952L23.1384 38.3949L25.5458 25.4665L56.4055 22.7398H70.974L87.7523 25.4665L89.4947 43.9098V68.7903L60.7543 60.6L57.8167 45.8304C57.3938 43.7042 54.3634 43.6761 53.9011 45.7941L50.6697 60.6Z" fill="#9D5CFF"/>
<path d="M28.8781 8.59903L49.8577 29.9185L45.3451 29.265C38.2423 28.2365 31.0158 29.9746 25.1576 34.1204L24.525 34.5681L20.3218 27.663V21.6586L28.8781 8.59903Z" fill="white"/>
<path fill-rule="evenodd" clip-rule="evenodd" d="M35.388 54.0334C32.6148 54.6896 30.5513 57.1814 30.5513 60.1552C30.5513 63.6293 33.3676 66.4457 36.8418 66.4457C40.316 66.4457 43.1323 63.6293 43.1323 60.1552C43.1323 59.529 43.0409 58.9242 42.8705 58.3535L35.388 54.0334Z" fill="#9D5CFF"/>
<path fill-rule="evenodd" clip-rule="evenodd" d="M35.8565 50.8398L45.404 56.3521L45.7453 57.4956C45.9978 58.3418 46.1323 59.2354 46.1323 60.1552C46.1323 65.2862 41.9728 69.4457 36.8418 69.4457C31.7108 69.4457 27.5513 65.2862 27.5513 60.1552C27.5513 55.7593 30.6014 52.0831 34.6973 51.114L35.8565 50.8398ZM42.8705 58.3535C43.0409 58.9243 43.1323 59.529 43.1323 60.1552C43.1323 63.6293 40.316 66.4457 36.8418 66.4457C33.3676 66.4457 30.5513 63.6293 30.5513 60.1552C30.5513 57.1814 32.6148 54.6896 35.388 54.0335L42.8705 58.3535Z" fill="white"/>
<path fill-rule="evenodd" clip-rule="evenodd" d="M68.9191 58.3955C68.7487 58.9663 68.6572 59.5711 68.6572 60.1973C68.6572 63.6715 71.4736 66.4879 74.9478 66.4879C78.4219 66.4879 81.2383 63.6715 81.2383 60.1973C81.2383 57.2235 79.1747 54.7316 76.4014 54.0756L68.9191 58.3955Z" fill="#9D5CFF"/>
<path fill-rule="evenodd" clip-rule="evenodd" d="M66.3858 56.3941L75.933 50.882L77.0921 51.1562C81.1882 52.1251 84.2384 55.8014 84.2384 60.1974C84.2384 65.3284 80.0789 69.4879 74.9479 69.4879C69.8169 69.4879 65.6574 65.3284 65.6574 60.1974C65.6574 59.2775 65.792 58.3838 66.0445 57.5376L66.3858 56.3941ZM68.9192 58.3955C68.7489 58.9663 68.6574 59.5712 68.6574 60.1974C68.6574 63.6715 71.4737 66.4879 74.9479 66.4879C78.4221 66.4879 81.2384 63.6715 81.2384 60.1974C81.2384 57.2235 79.1748 54.7317 76.4015 54.0756L68.9192 58.3955Z" fill="white"/>
<path fill-rule="evenodd" clip-rule="evenodd" d="M28.0932 4.23682C27.3354 4.32551 26.6596 4.75539 26.2581 5.40415L18.149 18.5058C15.1274 23.3876 15.8198 29.6999 19.8278 33.8106L25.3311 39.4551L28.9111 35.9646L23.4078 30.3201C21.003 27.8537 20.5876 24.0663 22.4005 21.1372L28.8514 10.7147L49.7648 31.5502L53.2937 28.0081L30.1483 4.94881C29.6078 4.41032 28.851 4.14812 28.0932 4.23682Z" fill="#9D5CFF"/>
<path d="M82.912 8.59903L61.9323 29.9185L66.445 29.265C73.5477 28.2365 80.7742 29.9746 86.6325 34.1204L87.2651 34.5681L91.4683 27.663V21.6586L82.912 8.59903Z" fill="white"/>
<path fill-rule="evenodd" clip-rule="evenodd" d="M83.6966 4.23682C84.4543 4.32551 85.1302 4.75539 85.5317 5.40415L93.6408 18.5058C96.6624 23.3876 95.9699 29.6999 91.962 33.8106L86.4587 39.4551L82.8787 35.9646L88.382 30.3201C90.7868 27.8537 91.2022 24.0663 89.3893 21.1372L82.9384 10.7147L62.025 31.5502L58.4961 28.0081L81.6415 4.94881C82.182 4.41032 82.9388 4.14812 83.6966 4.23682Z" fill="#9D5CFF"/>
<path fill-rule="evenodd" clip-rule="evenodd" d="M44.1687 48.294C43.4783 49.4898 41.9494 49.8995 40.7536 49.2091L31.2507 43.7226C30.0549 43.0322 29.6453 41.5032 30.3356 40.3075C31.026 39.1118 32.5549 38.7021 33.7507 39.3924L43.2536 44.879C44.4494 45.5693 44.8591 47.0983 44.1687 48.294Z" fill="white"/>
<path fill-rule="evenodd" clip-rule="evenodd" d="M67.6213 48.294C68.3117 49.4898 69.8407 49.8995 71.0364 49.2091L80.5394 43.7226C81.7351 43.0322 82.1448 41.5032 81.4544 40.3075C80.7641 39.1118 79.2351 38.7021 78.0394 39.3924L68.5364 44.879C67.3407 45.5693 66.931 47.0983 67.6213 48.294Z" fill="white"/>
<g filter="url(#filter1_d_914_683)">
<path d="M51.0221 30.324L27.6311 7.73624L36.2173 27.3905C36.7967 28.7168 37.7274 29.8597 38.9089 30.6958C40.875 32.087 43.3659 32.5114 45.6818 31.8498L51.0221 30.324Z" fill="#9D5CFF"/>
</g>
<g filter="url(#filter2_d_914_683)">
<path d="M60.8625 30.324L84.2534 7.73624L75.6672 27.3905C75.0878 28.7168 74.1571 29.8597 72.9756 30.6958C71.0095 32.087 68.5186 32.5114 66.2027 31.8498L60.8625 30.324Z" fill="#9D5CFF"/>
</g>
<defs>
<filter id="filter0_d_914_683" x="0.674316" y="0.719818" width="110.441" height="104.29" filterUnits="userSpaceOnUse" color-interpolation-filters="sRGB">
<feFlood flood-opacity="0" result="BackgroundImageFix"/>
<feColorMatrix in="SourceAlpha" type="matrix" values="0 0 0 0 0 0 0 0 0 0 0 0 0 0 0 0 0 0 127 0" result="hardAlpha"/>
<feOffset dy="4"/>
<feGaussianBlur stdDeviation="2"/>
<feComposite in2="hardAlpha" operator="out"/>
<feColorMatrix type="matrix" values="0 0 0 0 0 0 0 0 0 0 0 0 0 0 0 0 0 0 0.25 0"/>
<feBlend mode="normal" in2="BackgroundImageFix" result="effect1_dropShadow_914_683"/>
<feBlend mode="normal" in="SourceGraphic" in2="effect1_dropShadow_914_683" result="shape"/>
</filter>
<filter id="filter1_d_914_683" x="23.6311" y="7.73624" width="31.3909" height="32.4193" filterUnits="userSpaceOnUse" color-interpolation-filters="sRGB">
<feFlood flood-opacity="0" result="BackgroundImageFix"/>
<feColorMatrix in="SourceAlpha" type="matrix" values="0 0 0 0 0 0 0 0 0 0 0 0 0 0 0 0 0 0 127 0" result="hardAlpha"/>
<feOffset dy="4"/>
<feGaussianBlur stdDeviation="2"/>
<feComposite in2="hardAlpha" operator="out"/>
<feColorMatrix type="matrix" values="0 0 0 0 0 0 0 0 0 0 0 0 0 0 0 0 0 0 0.25 0"/>
<feBlend mode="normal" in2="BackgroundImageFix" result="effect1_dropShadow_914_683"/>
<feBlend mode="normal" in="SourceGraphic" in2="effect1_dropShadow_914_683" result="shape"/>
</filter>
<filter id="filter2_d_914_683" x="56.8625" y="7.73624" width="31.3909" height="32.4193" filterUnits="userSpaceOnUse" color-interpolation-filters="sRGB">
<feFlood flood-opacity="0" result="BackgroundImageFix"/>
<feColorMatrix in="SourceAlpha" type="matrix" values="0 0 0 0 0 0 0 0 0 0 0 0 0 0 0 0 0 0 127 0" result="hardAlpha"/>
<feOffset dy="4"/>
<feGaussianBlur stdDeviation="2"/>
<feComposite in2="hardAlpha" operator="out"/>
<feColorMatrix type="matrix" values="0 0 0 0 0 0 0 0 0 0 0 0 0 0 0 0 0 0 0.25 0"/>
<feBlend mode="normal" in2="BackgroundImageFix" result="effect1_dropShadow_914_683"/>
<feBlend mode="normal" in="SourceGraphic" in2="effect1_dropShadow_914_683" result="shape"/>
</filter>
</defs>
</svg>
